<svg width="29" height="29" viewBox="0 0 29 29" fill="none" xmlns="http://www.w3.org/2000/svg">
<g clip-path="url(#clip0_249_6787)">
<path d="M23.4839 9.93963C23.4839 4.9845 19.4525 0.953125 14.4974 0.953125C9.54226 0.953125 5.51088 4.9845 5.51088 9.93963V15.7128H0.554688V17.3467H2.24306V28.8385H26.7517C26.7517 27.5703 26.7517 18.4719 26.7517 17.3467H28.4401V15.7128H23.4839V9.93963ZM20.2161 23.9368V17.3467H21.85V23.9368H20.2161ZM8.77871 17.3467V23.9368H7.14479V17.3467H8.77871ZM14.4974 5.85486C15.3101 7.8064 16.7076 9.51946 18.5822 10.7187V15.7128H10.4126V10.7187C12.1929 9.57988 13.6419 7.90937 14.4974 5.85486ZM10.4126 17.3467H12.0465V23.9368H10.4126V17.3467ZM13.6804 17.3467H15.3143V23.9368H13.6804V17.3467ZM16.9483 17.3467H18.5822V23.9368H16.9483V17.3467ZM20.2161 15.7128V11.5744C20.7439 11.7948 21.2903 11.9733 21.85 12.1058V15.7128H20.2161ZM21.85 9.93963V10.4194C18.2856 9.42031 15.7073 6.33652 15.3558 2.63746C19.007 3.06402 21.85 6.17568 21.85 9.93963ZM13.639 2.63746C13.2875 6.33652 10.7092 9.4201 7.14479 10.4194V9.93963C7.14479 6.17568 9.98776 3.06402 13.639 2.63746ZM7.14479 12.1058C7.70454 11.9733 8.25088 11.7948 8.77871 11.5744V15.7128H7.14479V12.1058ZM3.87697 17.3467H5.51088V23.9368H3.87697V17.3467ZM25.1178 27.2046H3.87697V25.5707H25.1178V27.2046ZM25.1178 23.9368H23.4839V17.3467H25.1178V23.9368Z" fill="#242424"/>
</g>
<defs>
<clipPath id="clip0_249_6787">
<rect width="27.8854" height="27.8854" fill="white" transform="translate(0.554688 0.953125)"/>
</clipPath>
</defs>
</svg>
