<svg width="138" height="53" viewBox="0 0 138 53" fill="none" xmlns="http://www.w3.org/2000/svg">
<mask id="path-1-inside-1_249_3688" fill="white">
<path d="M83.0325 0.216155L83.5989 0.514066L85.0352 0.479017L85.6658 1.37863L85.5957 1.89853L85.9694 2.04457L88.0013 1.64149L88.2231 1.98617L89.4668 2.31329L90.6695 3.07855L90.7805 3.64518L92.1234 4.24102L94.021 3.97814L94.6866 6.24469L95.2179 6.84638L96.4207 7.08006L98.5226 6.88143L99.2233 6.34986L99.2583 4.55063L99.7254 4.21765H100.595L101.43 4.68499L102.166 6.38491L102.534 7.58828L101.897 9.08373L102.505 9.60947L103.001 11.1633H103.468L104.437 9.89571L105.804 8.96106L106.037 9.13046L107.637 7.96213L108.168 7.72847L108.606 7.90371L108.921 7.61748L108.939 6.69451L108.104 6.09282L108.746 5.07054L110.475 4.89528L112.174 5.92926L112.886 6.04608L114.474 4.52726L116.173 4.39291L116.015 3.30053L118.006 2.34834L121.761 1.31436H122.578L123.121 1.75249L123.337 2.40676L122.742 4.85439L123.612 5.94094V6.37906L122.035 7.52401L122.415 7.96213L124.92 8.94352L125.573 9.53938L125.848 10.2988V11.0582L124.108 12.5829L125.9 13.1787L126.443 13.5584L126.659 14.1543L126.169 15.7841L126.928 16.8706L126.981 17.5775L126.058 19.9141L126.111 20.6735L128.394 21.1116L129.917 22.093L131.062 24.9788L131.984 26.1763H132.743L133.397 25.3585L133.888 25.1949L134.81 25.5746L134.974 26.1179L135.569 26.6086L134.974 27.2629L135.844 27.8645L137.152 29.4418L137.531 30.908L136.988 31.2877L136.825 32.4327L135.412 33.3557L132.259 34.3896L131.821 34.9329L130.408 35.0965L129.047 36.7263L127.033 37.217L126.49 37.6551L124.639 38.1984L123.39 37.4915L121.486 37.328L120.505 37.439L118.386 38.4204L117.463 37.439L115.233 37.3864L113.166 35.7566L111.59 35.5404L109.739 35.815L108.378 34.67L106.422 34.3955L105.442 33.9573L104.788 33.4667L104.513 32.5437L102.172 32.2166L101.191 34.1209L100.484 34.559L97.1681 34.8862L96.6776 35.2133L95.1011 37.9881L94.8851 39.6763L94.3129 40.4591L93.4897 39.9333L93.0226 39.9684L93.0576 40.7044L90.6579 41.2711L90.255 42.4394L89.8521 42.6731L88.118 42.5036L86.9036 42.971L86.5824 44.3029L85.549 45.5354L84.4805 45.4011L84.0776 44.6358H83.6105L81.2108 45.9736L78.0346 45.5705L77.1003 45.7691L76.6683 46.067L76.4347 46.8323L76.137 50.1036L75.2028 51.2719L74.3328 51.4705L73.0308 51.2719L70.7653 50.0393L69.6969 52.1073L68.7276 51.9087L68.2605 51.307L67.6591 51.2077L66.4272 52.3409L65.3587 52.4052L63.7881 51.8736L62.5211 50.7754L62.8772 47.8195L62.054 46.6746L60.0513 45.5763L58.5157 42.2057L57.9493 41.8026L54.8431 41.2068L53.5119 39.7698L52.9456 39.8691L52.4785 40.535L51.1764 40.7044L50.4933 41.4229L49.1095 41.236L48.2746 42.27L46.2077 41.3061L45.6063 42.5328L44.7655 43.2455L43.8021 44.8052L41.7994 44.7702L41.2681 44.3029L41.1338 43.1345L40.1996 42.3342L39.6683 42.2992L38.302 43.2981L37.7357 43.2338L35.733 41.3996L34.2558 42.2525L33.9172 42.9418L32.6618 42.6731L31.5992 44.2386L30.7642 44.3029L30.0636 42.7373L28.8316 42.7023L27.1968 42.1356L26.7297 42.4335L26.2276 44.0341L25.1707 44.5073L21.9886 42.0655L19.0226 41.0666L18.1234 41.1017L17.4228 41.7676L16.5586 41.8669L15.6244 41.5982L15.2683 41.1718L14.4859 41.3645L13.2773 42.971L12.5299 43.0352L12.0511 43.4734L12.0862 43.9407L10.9534 43.9056L9.27773 44.4431L8.76976 44.0634L7.88228 44.4723L6.61527 44.04L6.11314 43.0411H5.50592L5.14392 44.5073L4.3732 45.1382L3.24049 44.2386L3.27552 43.1404L3.77765 42.5036L3.91195 41.569L2.67997 37.9004L2.64494 35.5638L2.2771 34.2261L0.64226 32.1757V29.9967L0.0408711 29.4768L0 28.8459L2.83762 25.6272L1.50055 23.7404L2.26542 21.503L3.63169 20.3873L3.99953 19.5169L3.06533 18.1149L3.36311 17.7118L3.8302 17.9104L4.49582 19.0437L5.52927 18.9444L6.36421 19.5461L7.02982 20.58L7.19915 23.0511L8.6997 23.2847L9.76819 22.3676L10.7374 22.1865L11.8701 22.5545L12.1037 22.2858L10.6031 19.9842L10.2703 18.5822L10.8016 12.9743L11.2687 12.6062L12.1387 12.6705L13.3707 13.4708L16.3076 12.3025L17.2067 12.3375L17.4052 12.8399L18.0066 12.7756L19.1393 10.9414L21.4048 9.60947L24.1373 8.70986L25.8889 8.77413L27.7573 8.30679L31.3248 6.86975L32.0896 6.9048L35.225 8.73908L37.4613 10.9414L38.1619 11.0056L38.664 10.474L39.3296 10.7428L39.4639 11.5781L40.2288 12.4134L42.7628 12.2148L43.3992 12.4485L44.8356 13.3189L45.904 13.4182L45.9683 14.1192L46.3361 14.4522L48.9694 15.8892L53.8389 17.1919L55.0417 17.9572L55.4737 18.3602L55.2402 19.1956L53.8389 19.9608L51.8712 21.6315L51.6377 23.6352L51.9355 24.3362L52.5368 24.4355L52.4493 22.8466L52.7354 21.8009L53.1382 21.503L54.4052 21.5673L56.9392 20.1302L56.805 19.0262L57.5698 17.9279L58.0019 13.9381L59.2689 13.4065L64.0041 12.4719L64.6405 11.3678L64.5062 9.93076L65.6389 9.52768L66.106 9.93076L67.0227 9.67957L68.4707 8.73323L71.7054 7.43054L72.2309 6.06361L71.1624 4.26439L71.431 3.62766L72.3301 3.32973L75.1677 3.23042L77.1704 1.99784L78.6359 0.198631L80.5686 0L83.0325 0.216155ZM75.0042 7.11511L75.3429 6.46083L75.3663 5.51449L74.94 4.9537L74.4904 5.51449L74.7357 6.91065L75.0042 7.11511ZM101.407 8.28343L101.553 7.72847L100.444 7.40719V8.13739L100.736 8.22501L101.407 8.28343ZM73.6322 10.696L73.7431 12.4952L73.4044 15.0188L73.7664 16.3682L74.4437 17.3146L75.2962 17.8111L77.0536 18.0798L77.5499 18.3719L77.6375 18.8684L77.4565 19.6103L76.8493 19.8557L77.6375 21.3628L76.172 22.7823L75.8333 23.9331L75.1152 24.4764L75.2728 24.8795L76.4406 25.0138L77.2288 25.709L77.5441 25.3234L77.1179 24.8269L77.2288 24.307L77.7251 23.6995L78.3323 23.8338L78.2214 25.0722L78.56 25.2533L80.6561 24.9613L82.0516 23.4074L82.1392 23.0043L81.6429 22.5078L81.7305 21.8769L81.2575 21.5848L78.8286 21.6724L78.7819 21.246L79.6344 20.8604L79.8621 20.3873L79.7278 19.7564L79.0738 19.0379L80.0664 18.7224L81.3509 17.8228L81.5319 17.4372L81.3276 16.8297L78.9629 17.998L78.4433 17.9513L77.5207 14.3003L76.6624 13.9147L76.2129 13.3306L75.8509 11.4613L74.9284 9.63867L73.6672 9.03116L73.06 9.36997L73.1709 9.79641L73.6322 10.696ZM104.385 22.3734L105.985 21.2518L108.104 21.5322L108.665 20.2529L105.623 17.7293L105.185 18.2492L105.663 19.5694L104.782 20.288L103.299 20.6501L103.141 21.2927L104.385 22.3734ZM53.2725 25.4636L52.9164 26.1763L53.8622 27.8353L54.0491 29.3717L54.6563 29.471L56.0576 28.9277L56.3962 29.1322L56.6823 29.7046L56.1744 31.1242L56.3262 31.8018L57.6282 30.9255L59.047 28.8985L60.9913 28.069L61.9022 26.8539L61.6511 26.0244L60.9913 25.8901L59.1988 26.3808L57.745 26.3457L54.5687 25.3643L53.2725 25.4636Z"/>
</mask>
<path d="M83.0325 0.216155L83.5989 0.514066L85.0352 0.479017L85.6658 1.37863L85.5957 1.89853L85.9694 2.04457L88.0013 1.64149L88.2231 1.98617L89.4668 2.31329L90.6695 3.07855L90.7805 3.64518L92.1234 4.24102L94.021 3.97814L94.6866 6.24469L95.2179 6.84638L96.4207 7.08006L98.5226 6.88143L99.2233 6.34986L99.2583 4.55063L99.7254 4.21765H100.595L101.43 4.68499L102.166 6.38491L102.534 7.58828L101.897 9.08373L102.505 9.60947L103.001 11.1633H103.468L104.437 9.89571L105.804 8.96106L106.037 9.13046L107.637 7.96213L108.168 7.72847L108.606 7.90371L108.921 7.61748L108.939 6.69451L108.104 6.09282L108.746 5.07054L110.475 4.89528L112.174 5.92926L112.886 6.04608L114.474 4.52726L116.173 4.39291L116.015 3.30053L118.006 2.34834L121.761 1.31436H122.578L123.121 1.75249L123.337 2.40676L122.742 4.85439L123.612 5.94094V6.37906L122.035 7.52401L122.415 7.96213L124.92 8.94352L125.573 9.53938L125.848 10.2988V11.0582L124.108 12.5829L125.9 13.1787L126.443 13.5584L126.659 14.1543L126.169 15.7841L126.928 16.8706L126.981 17.5775L126.058 19.9141L126.111 20.6735L128.394 21.1116L129.917 22.093L131.062 24.9788L131.984 26.1763H132.743L133.397 25.3585L133.888 25.1949L134.81 25.5746L134.974 26.1179L135.569 26.6086L134.974 27.2629L135.844 27.8645L137.152 29.4418L137.531 30.908L136.988 31.2877L136.825 32.4327L135.412 33.3557L132.259 34.3896L131.821 34.9329L130.408 35.0965L129.047 36.7263L127.033 37.217L126.49 37.6551L124.639 38.1984L123.39 37.4915L121.486 37.328L120.505 37.439L118.386 38.4204L117.463 37.439L115.233 37.3864L113.166 35.7566L111.59 35.5404L109.739 35.815L108.378 34.67L106.422 34.3955L105.442 33.9573L104.788 33.4667L104.513 32.5437L102.172 32.2166L101.191 34.1209L100.484 34.559L97.1681 34.8862L96.6776 35.2133L95.1011 37.9881L94.8851 39.6763L94.3129 40.4591L93.4897 39.9333L93.0226 39.9684L93.0576 40.7044L90.6579 41.2711L90.255 42.4394L89.8521 42.6731L88.118 42.5036L86.9036 42.971L86.5824 44.3029L85.549 45.5354L84.4805 45.4011L84.0776 44.6358H83.6105L81.2108 45.9736L78.0346 45.5705L77.1003 45.7691L76.6683 46.067L76.4347 46.8323L76.137 50.1036L75.2028 51.2719L74.3328 51.4705L73.0308 51.2719L70.7653 50.0393L69.6969 52.1073L68.7276 51.9087L68.2605 51.307L67.6591 51.2077L66.4272 52.3409L65.3587 52.4052L63.7881 51.8736L62.5211 50.7754L62.8772 47.8195L62.054 46.6746L60.0513 45.5763L58.5157 42.2057L57.9493 41.8026L54.8431 41.2068L53.5119 39.7698L52.9456 39.8691L52.4785 40.535L51.1764 40.7044L50.4933 41.4229L49.1095 41.236L48.2746 42.27L46.2077 41.3061L45.6063 42.5328L44.7655 43.2455L43.8021 44.8052L41.7994 44.7702L41.2681 44.3029L41.1338 43.1345L40.1996 42.3342L39.6683 42.2992L38.302 43.2981L37.7357 43.2338L35.733 41.3996L34.2558 42.2525L33.9172 42.9418L32.6618 42.6731L31.5992 44.2386L30.7642 44.3029L30.0636 42.7373L28.8316 42.7023L27.1968 42.1356L26.7297 42.4335L26.2276 44.0341L25.1707 44.5073L21.9886 42.0655L19.0226 41.0666L18.1234 41.1017L17.4228 41.7676L16.5586 41.8669L15.6244 41.5982L15.2683 41.1718L14.4859 41.3645L13.2773 42.971L12.5299 43.0352L12.0511 43.4734L12.0862 43.9407L10.9534 43.9056L9.27773 44.4431L8.76976 44.0634L7.88228 44.4723L6.61527 44.04L6.11314 43.0411H5.50592L5.14392 44.5073L4.3732 45.1382L3.24049 44.2386L3.27552 43.1404L3.77765 42.5036L3.91195 41.569L2.67997 37.9004L2.64494 35.5638L2.2771 34.2261L0.64226 32.1757V29.9967L0.0408711 29.4768L0 28.8459L2.83762 25.6272L1.50055 23.7404L2.26542 21.503L3.63169 20.3873L3.99953 19.5169L3.06533 18.1149L3.36311 17.7118L3.8302 17.9104L4.49582 19.0437L5.52927 18.9444L6.36421 19.5461L7.02982 20.58L7.19915 23.0511L8.6997 23.2847L9.76819 22.3676L10.7374 22.1865L11.8701 22.5545L12.1037 22.2858L10.6031 19.9842L10.2703 18.5822L10.8016 12.9743L11.2687 12.6062L12.1387 12.6705L13.3707 13.4708L16.3076 12.3025L17.2067 12.3375L17.4052 12.8399L18.0066 12.7756L19.1393 10.9414L21.4048 9.60947L24.1373 8.70986L25.8889 8.77413L27.7573 8.30679L31.3248 6.86975L32.0896 6.9048L35.225 8.73908L37.4613 10.9414L38.1619 11.0056L38.664 10.474L39.3296 10.7428L39.4639 11.5781L40.2288 12.4134L42.7628 12.2148L43.3992 12.4485L44.8356 13.3189L45.904 13.4182L45.9683 14.1192L46.3361 14.4522L48.9694 15.8892L53.8389 17.1919L55.0417 17.9572L55.4737 18.3602L55.2402 19.1956L53.8389 19.9608L51.8712 21.6315L51.6377 23.6352L51.9355 24.3362L52.5368 24.4355L52.4493 22.8466L52.7354 21.8009L53.1382 21.503L54.4052 21.5673L56.9392 20.1302L56.805 19.0262L57.5698 17.9279L58.0019 13.9381L59.2689 13.4065L64.0041 12.4719L64.6405 11.3678L64.5062 9.93076L65.6389 9.52768L66.106 9.93076L67.0227 9.67957L68.4707 8.73323L71.7054 7.43054L72.2309 6.06361L71.1624 4.26439L71.431 3.62766L72.3301 3.32973L75.1677 3.23042L77.1704 1.99784L78.6359 0.198631L80.5686 0L83.0325 0.216155ZM75.0042 7.11511L75.3429 6.46083L75.3663 5.51449L74.94 4.9537L74.4904 5.51449L74.7357 6.91065L75.0042 7.11511ZM101.407 8.28343L101.553 7.72847L100.444 7.40719V8.13739L100.736 8.22501L101.407 8.28343ZM73.6322 10.696L73.7431 12.4952L73.4044 15.0188L73.7664 16.3682L74.4437 17.3146L75.2962 17.8111L77.0536 18.0798L77.5499 18.3719L77.6375 18.8684L77.4565 19.6103L76.8493 19.8557L77.6375 21.3628L76.172 22.7823L75.8333 23.9331L75.1152 24.4764L75.2728 24.8795L76.4406 25.0138L77.2288 25.709L77.5441 25.3234L77.1179 24.8269L77.2288 24.307L77.7251 23.6995L78.3323 23.8338L78.2214 25.0722L78.56 25.2533L80.6561 24.9613L82.0516 23.4074L82.1392 23.0043L81.6429 22.5078L81.7305 21.8769L81.2575 21.5848L78.8286 21.6724L78.7819 21.246L79.6344 20.8604L79.8621 20.3873L79.7278 19.7564L79.0738 19.0379L80.0664 18.7224L81.3509 17.8228L81.5319 17.4372L81.3276 16.8297L78.9629 17.998L78.4433 17.9513L77.5207 14.3003L76.6624 13.9147L76.2129 13.3306L75.8509 11.4613L74.9284 9.63867L73.6672 9.03116L73.06 9.36997L73.1709 9.79641L73.6322 10.696ZM104.385 22.3734L105.985 21.2518L108.104 21.5322L108.665 20.2529L105.623 17.7293L105.185 18.2492L105.663 19.5694L104.782 20.288L103.299 20.6501L103.141 21.2927L104.385 22.3734ZM53.2725 25.4636L52.9164 26.1763L53.8622 27.8353L54.0491 29.3717L54.6563 29.471L56.0576 28.9277L56.3962 29.1322L56.6823 29.7046L56.1744 31.1242L56.3262 31.8018L57.6282 30.9255L59.047 28.8985L60.9913 28.069L61.9022 26.8539L61.6511 26.0244L60.9913 25.8901L59.1988 26.3808L57.745 26.3457L54.5687 25.3643L53.2725 25.4636Z" fill="#3C5F63" fill-opacity="0.7" stroke="#E5E4E9" stroke-width="0.771084" mask="url(#path-1-inside-1_249_3688)"/>
</svg>
