<svg width="46" height="36" viewBox="0 0 46 36" fill="none" xmlns="http://www.w3.org/2000/svg">
<path d="M5.94141 5.47743C5.94141 4.6256 6.27979 3.80867 6.88212 3.20634C7.48445 2.60401 8.30139 2.26563 9.15321 2.26562H36.9888C37.8407 2.26562 38.6576 2.60401 39.2599 3.20634C39.8622 3.80867 40.2006 4.6256 40.2006 5.47743V17.254H5.94141V5.47743Z" stroke="#242424" stroke-width="2.98772" stroke-linecap="round" stroke-linejoin="round"/>
<path d="M3.80078 30.0938V34.3762" stroke="#242424" stroke-width="2.98772" stroke-linecap="round" stroke-linejoin="round"/>
<path d="M42.3438 30.0938V34.3762" stroke="#242424" stroke-width="2.98772" stroke-linecap="round" stroke-linejoin="round"/>
<path d="M28.4256 11.8984H17.7196C16.8678 11.8984 16.0509 12.2368 15.4485 12.8392C14.8462 13.4415 14.5078 14.2584 14.5078 15.1102V17.2514H31.6374V15.1102C31.6374 14.2584 31.299 13.4415 30.6967 12.8392C30.0944 12.2368 29.2774 11.8984 28.4256 11.8984Z" stroke="#242424" stroke-width="2.98772" stroke-linecap="round" stroke-linejoin="round"/>
<path d="M1.66016 20.4618C1.66016 19.61 1.99854 18.793 2.60087 18.1907C3.2032 17.5884 4.02014 17.25 4.87196 17.25H41.2724C42.1242 17.25 42.9411 17.5884 43.5435 18.1907C44.1458 18.793 44.4842 19.61 44.4842 20.4618V30.0972H1.66016V20.4618Z" stroke="#242424" stroke-width="2.98772" stroke-linecap="round" stroke-linejoin="round"/>
</svg>
