<svg width="175" height="80" viewBox="0 0 175 80" fill="none" xmlns="http://www.w3.org/2000/svg">
<mask id="path-1-inside-1_249_3692" fill="white">
<path d="M50.0379 1.06902H51.2056L52.4084 2.63457L53.471 2.53526V3.07269L53.8097 3.30636L54.306 3.56923L54.8723 3.43487L55.1409 3.9022L55.6723 3.77369L57.0444 5.27498L58.6442 5.87083L58.9419 6.40826L60.1097 6.07529L60.8103 6.67697L63.683 7.44223L63.9457 8.27758L66.4505 11.4145L67.6475 12.4835L68.751 12.9158L69.4516 14.1835L71.0164 15.2174L71.8514 15.3518L72.8206 14.9195L73.3869 15.0831L74.3737 14.5807L74.94 14.7501L77.8769 16.0878L78.5075 16.7187L82.6472 18.886L85.6833 19.7564L87.6509 21.1233L89.5485 21.6607L90.9148 22.759L93.5189 22.6246L95.9536 23.3256H97.7811L101.086 24.0616L103.018 23.7929L112.092 26.1938L113.458 24.2252L114.054 23.8689L114.906 20.3405L115.834 19.1547L117.195 18.0857L120.395 17.1861L121.095 17.3847L121.86 18.553L123.559 18.7516L124.791 19.7213H125.76L129.264 18.7516L131.599 18.8217L132.23 19.3241L135.435 19.3883L136.136 19.7914L136.486 22.0755L137.198 22.461L138.337 22.5253L144 20.8955L144.538 19.8557L145.005 19.5461L148.093 20.0718L148.87 19.6571L150.464 20.0718L153.769 20.0543L154.703 19.4876L155.1 18.8042L155.17 17.7877L155.608 17.3847L157.973 17.2211L158.609 16.0878L159.105 16.0177L162.042 16.5201L163.046 15.8834L164.839 15.6322L165.469 15.9009L166.445 17.3847L167.081 17.3204L168.476 16.1346L170.975 16.3332L171.711 16.5376L171.974 17.7702L173.118 17.9221L174.811 19.2598L174.315 20.0251L172.721 20.4223L170.864 22.0813L170 24.8678L169.341 25.2008L167.747 24.9379L161.575 25.7323L160.717 25.9952L160.314 26.4625L158.591 26.2639L155.941 27.4556L154.942 27.59L152.093 27.1927L150.563 27.8587L149.174 27.6601L148.111 28.1216L146.056 27.7886L144.859 28.0573L144.263 27.5257L143.136 27.4556L143.072 28.7875L141.478 28.9861L140.55 29.4476L139.09 29.249L137.963 30.4465L134.116 32.9L133.053 34.0975L131.593 34.7576L131.395 36.2882L130.799 36.6854L129.935 36.9483L129.007 36.551H127.08L125.953 36.8139L125.293 37.3455L122.637 37.8128L122.175 38.3444L119.916 38.2743L118.392 38.6073L116.932 37.9472L115.607 37.7427L115.274 38.4729L115.607 39.8048L115.537 40.9965L113.481 41.0666L112.687 41.7267H111.823L111.292 42.194L110.434 44.186L108.308 45.7107L107.579 46.5752L105.255 47.5683L104.396 47.0367L103.667 46.9725L103.334 46.3708L103.398 45.7749L102.802 45.6406L102.54 46.1079L101.81 46.4409L100.677 46.7739L99.5503 46.5752L98.6219 46.9024L97.098 45.845L96.4324 46.7038L94.5757 46.7739L92.9875 47.434L90.0682 46.3708L88.2115 46.8381L87.4116 46.5752L86.8802 45.9736L85.0936 47.2354L83.4354 47.3055L82.7698 46.3065L82.1042 46.1079L80.7788 46.8381L77.7952 46.3708L77.1296 46.7038L72.6863 47.101L72.8848 48.0357L74.2102 49.5603L74.6773 50.8221L75.4714 51.8794L75.74 53.4099L75.1386 53.8714L74.0818 53.6086L71.8922 53.8714L70.8938 54.3388L69.5042 56.1321L67.9102 57.3881L66.252 57.1252L63.3618 58.1533L61.9664 58.0891L60.1097 58.5506L58.7142 58.2234L57.1261 58.7492L55.5321 58.8835L53.7396 58.5506L52.6127 63.7964L53.2784 64.3922L55.1993 65.2568L55.3978 65.8526L54.8665 66.0512L54.3352 66.9158L53.4769 67.1144L52.677 67.7803L52.35 68.4404L52.8755 70.4324L52.4785 71.4255L50.8903 72.2258L50.3298 75.4445L49.2029 75.6432L47.8075 75.2459L47.0134 75.5789L46.3478 76.1747L45.291 79.3584L44.5612 79.89L43.697 78.8969L44.6896 76.0404L44.4269 75.7074L42.1731 76.1046L41.309 75.906L40.912 74.9772L39.318 73.5168L38.6582 72.4595L37.6598 73.4526L36.9942 73.3182L35.9373 73.7855H32.9479L32.4867 73.3883L30.7642 73.7855L30.373 73.5694L30.3322 72.3718L29.976 71.9746L29.7074 70.6836L29.0885 70.374L27.2201 70.1053L22.3857 71.2619L21.6733 70.7304L21.0953 70.6836L20.6049 71.2152L19.3203 71.0867L18.5671 70.2864L17.3644 70.374L13.3707 69.1298L12.5241 69.3517L11.5957 68.5514L11.1052 66.5536L10.3929 65.578L5.82121 64.3338L3.92362 64.509L2.62158 63.995L2.4114 62.9727L2.69749 61.3604L0.799903 60.6711L0 59.5787L0.169328 56.5878L0.630575 56.1847L3.15875 56.9909L5.7453 54.7477L6.3759 54.6308L7.24002 54.9813L9.30693 54.2336L11.7242 54.8645L13.2714 53.4859L15.6887 53.3106L18.2752 54.1752L22.5842 52.6797L23.2732 51.8736L23.3899 50.0335L25.0014 48.0765L25.4043 46.8732V45.7808L24.0789 44.8578L23.3315 45.4887L22.701 45.3777L22.2981 44.2853L21.6675 43.6486L20.8618 43.8238L20.8034 45.0856L20.1728 47.0426L19.7115 47.2178L19.081 46.8965L19.1569 46.0203L17.5921 44.519L16.0565 41.5281L15.3558 38.9636L15.3909 35.8267L16.3659 33.2856L16.5586 31.5272L17.8256 29.0504L18.7832 27.847L19.2211 23.3957L18.9583 21.357L18.3978 20.0543L18.6664 18.7867L20.1961 17.2503L20.1261 14.5515L20.599 13.3832L22.6659 12.8808L24.2074 12.0396L25.4685 10.8128L27.6055 9.70878L30.1745 7.81025L30.5599 8.30679L31.3598 8.5755L31.9261 7.97381L35.1083 8.27758L36.0074 7.37213L36.1943 6.75876L36.5154 6.85806L37.8992 2.86824L39.8318 3.56923L40.5967 4.83686L41.636 5.36845L42.5001 5.07053L43.3992 4.23518L47.7024 4.00735L48.3388 3.70359L48.6015 3.07269L47.4046 0.934659L47.6674 0L48.7067 0.736044L50.0379 1.06902Z"/>
</mask>
<path d="M50.0379 1.06902H51.2056L52.4084 2.63457L53.471 2.53526V3.07269L53.8097 3.30636L54.306 3.56923L54.8723 3.43487L55.1409 3.9022L55.6723 3.77369L57.0444 5.27498L58.6442 5.87083L58.9419 6.40826L60.1097 6.07529L60.8103 6.67697L63.683 7.44223L63.9457 8.27758L66.4505 11.4145L67.6475 12.4835L68.751 12.9158L69.4516 14.1835L71.0164 15.2174L71.8514 15.3518L72.8206 14.9195L73.3869 15.0831L74.3737 14.5807L74.94 14.7501L77.8769 16.0878L78.5075 16.7187L82.6472 18.886L85.6833 19.7564L87.6509 21.1233L89.5485 21.6607L90.9148 22.759L93.5189 22.6246L95.9536 23.3256H97.7811L101.086 24.0616L103.018 23.7929L112.092 26.1938L113.458 24.2252L114.054 23.8689L114.906 20.3405L115.834 19.1547L117.195 18.0857L120.395 17.1861L121.095 17.3847L121.86 18.553L123.559 18.7516L124.791 19.7213H125.76L129.264 18.7516L131.599 18.8217L132.23 19.3241L135.435 19.3883L136.136 19.7914L136.486 22.0755L137.198 22.461L138.337 22.5253L144 20.8955L144.538 19.8557L145.005 19.5461L148.093 20.0718L148.87 19.6571L150.464 20.0718L153.769 20.0543L154.703 19.4876L155.1 18.8042L155.17 17.7877L155.608 17.3847L157.973 17.2211L158.609 16.0878L159.105 16.0177L162.042 16.5201L163.046 15.8834L164.839 15.6322L165.469 15.9009L166.445 17.3847L167.081 17.3204L168.476 16.1346L170.975 16.3332L171.711 16.5376L171.974 17.7702L173.118 17.9221L174.811 19.2598L174.315 20.0251L172.721 20.4223L170.864 22.0813L170 24.8678L169.341 25.2008L167.747 24.9379L161.575 25.7323L160.717 25.9952L160.314 26.4625L158.591 26.2639L155.941 27.4556L154.942 27.59L152.093 27.1927L150.563 27.8587L149.174 27.6601L148.111 28.1216L146.056 27.7886L144.859 28.0573L144.263 27.5257L143.136 27.4556L143.072 28.7875L141.478 28.9861L140.55 29.4476L139.09 29.249L137.963 30.4465L134.116 32.9L133.053 34.0975L131.593 34.7576L131.395 36.2882L130.799 36.6854L129.935 36.9483L129.007 36.551H127.08L125.953 36.8139L125.293 37.3455L122.637 37.8128L122.175 38.3444L119.916 38.2743L118.392 38.6073L116.932 37.9472L115.607 37.7427L115.274 38.4729L115.607 39.8048L115.537 40.9965L113.481 41.0666L112.687 41.7267H111.823L111.292 42.194L110.434 44.186L108.308 45.7107L107.579 46.5752L105.255 47.5683L104.396 47.0367L103.667 46.9725L103.334 46.3708L103.398 45.7749L102.802 45.6406L102.54 46.1079L101.81 46.4409L100.677 46.7739L99.5503 46.5752L98.6219 46.9024L97.098 45.845L96.4324 46.7038L94.5757 46.7739L92.9875 47.434L90.0682 46.3708L88.2115 46.8381L87.4116 46.5752L86.8802 45.9736L85.0936 47.2354L83.4354 47.3055L82.7698 46.3065L82.1042 46.1079L80.7788 46.8381L77.7952 46.3708L77.1296 46.7038L72.6863 47.101L72.8848 48.0357L74.2102 49.5603L74.6773 50.8221L75.4714 51.8794L75.74 53.4099L75.1386 53.8714L74.0818 53.6086L71.8922 53.8714L70.8938 54.3388L69.5042 56.1321L67.9102 57.3881L66.252 57.1252L63.3618 58.1533L61.9664 58.0891L60.1097 58.5506L58.7142 58.2234L57.1261 58.7492L55.5321 58.8835L53.7396 58.5506L52.6127 63.7964L53.2784 64.3922L55.1993 65.2568L55.3978 65.8526L54.8665 66.0512L54.3352 66.9158L53.4769 67.1144L52.677 67.7803L52.35 68.4404L52.8755 70.4324L52.4785 71.4255L50.8903 72.2258L50.3298 75.4445L49.2029 75.6432L47.8075 75.2459L47.0134 75.5789L46.3478 76.1747L45.291 79.3584L44.5612 79.89L43.697 78.8969L44.6896 76.0404L44.4269 75.7074L42.1731 76.1046L41.309 75.906L40.912 74.9772L39.318 73.5168L38.6582 72.4595L37.6598 73.4526L36.9942 73.3182L35.9373 73.7855H32.9479L32.4867 73.3883L30.7642 73.7855L30.373 73.5694L30.3322 72.3718L29.976 71.9746L29.7074 70.6836L29.0885 70.374L27.2201 70.1053L22.3857 71.2619L21.6733 70.7304L21.0953 70.6836L20.6049 71.2152L19.3203 71.0867L18.5671 70.2864L17.3644 70.374L13.3707 69.1298L12.5241 69.3517L11.5957 68.5514L11.1052 66.5536L10.3929 65.578L5.82121 64.3338L3.92362 64.509L2.62158 63.995L2.4114 62.9727L2.69749 61.3604L0.799903 60.6711L0 59.5787L0.169328 56.5878L0.630575 56.1847L3.15875 56.9909L5.7453 54.7477L6.3759 54.6308L7.24002 54.9813L9.30693 54.2336L11.7242 54.8645L13.2714 53.4859L15.6887 53.3106L18.2752 54.1752L22.5842 52.6797L23.2732 51.8736L23.3899 50.0335L25.0014 48.0765L25.4043 46.8732V45.7808L24.0789 44.8578L23.3315 45.4887L22.701 45.3777L22.2981 44.2853L21.6675 43.6486L20.8618 43.8238L20.8034 45.0856L20.1728 47.0426L19.7115 47.2178L19.081 46.8965L19.1569 46.0203L17.5921 44.519L16.0565 41.5281L15.3558 38.9636L15.3909 35.8267L16.3659 33.2856L16.5586 31.5272L17.8256 29.0504L18.7832 27.847L19.2211 23.3957L18.9583 21.357L18.3978 20.0543L18.6664 18.7867L20.1961 17.2503L20.1261 14.5515L20.599 13.3832L22.6659 12.8808L24.2074 12.0396L25.4685 10.8128L27.6055 9.70878L30.1745 7.81025L30.5599 8.30679L31.3598 8.5755L31.9261 7.97381L35.1083 8.27758L36.0074 7.37213L36.1943 6.75876L36.5154 6.85806L37.8992 2.86824L39.8318 3.56923L40.5967 4.83686L41.636 5.36845L42.5001 5.07053L43.3992 4.23518L47.7024 4.00735L48.3388 3.70359L48.6015 3.07269L47.4046 0.934659L47.6674 0L48.7067 0.736044L50.0379 1.06902Z" fill="#3C5F63" fill-opacity="0.7" stroke="#E5E4E9" stroke-width="0.771084" mask="url(#path-1-inside-1_249_3692)"/>
</svg>
