<svg width="13" height="12" viewBox="0 0 13 12" fill="none" xmlns="http://www.w3.org/2000/svg">
<path d="M7.92156 4.55492H11.3811C11.9782 4.55492 12.4622 5.03893 12.4622 5.63598V6.7735C12.4622 6.91469 12.4345 7.05452 12.3808 7.18512L10.7081 11.2472C10.6247 11.4498 10.4273 11.5819 10.2083 11.5819H1.11085C0.812323 11.5819 0.570312 11.3399 0.570312 11.0414V5.63598C0.570312 5.33746 0.812323 5.09546 1.11085 5.09546H2.99293C3.16857 5.09546 3.33325 5.01012 3.43453 4.86664L6.38231 0.690608C6.45934 0.58149 6.60453 0.544999 6.72399 0.604731L7.70458 1.09502C8.27301 1.37925 8.56658 2.02118 8.40983 2.63709L7.92156 4.55492ZM3.81356 5.95355V10.5008H9.84631L11.3811 6.7735V5.63598H7.92156C7.21631 5.63598 6.69993 4.97165 6.87388 4.2882L7.36215 2.37038C7.3935 2.2472 7.3348 2.11881 7.22107 2.06197L6.86372 1.88328L4.31774 5.49008C4.18266 5.68144 4.00999 5.83831 3.81356 5.95355ZM2.73247 6.17652H1.65139V10.5008H2.73247V6.17652Z" fill="#242424"/>
</svg>
