<svg width="49" height="50" viewBox="0 0 49 50" fill="none" xmlns="http://www.w3.org/2000/svg">
<rect x="8.58594" y="9.09375" width="31.7232" height="31.7232" rx="15.8616" fill="#242424"/>
<path d="M29.251 18.3852C28.0837 18.3852 26.9917 18.8142 26.1681 19.5931L24.4315 21.2443L22.6806 19.5789C21.8652 18.802 20.7711 18.375 19.6039 18.375C18.4366 18.375 17.3446 18.802 16.5251 19.5809C14.7437 21.2728 15.3273 23.768 16.6227 25.3704C18.0991 27.1924 22.644 31.2473 24.4417 32.8274C26.2271 31.2433 30.7416 27.1924 32.2322 25.3745C33.5784 23.7313 34.1356 21.3074 32.3277 19.5911C31.4957 18.8079 30.3936 18.376 29.251 18.3852Z" fill="white"/>
<path d="M24.4487 4.61719C13.2357 4.61719 4.11328 13.7397 4.11328 24.9526C4.11328 36.1655 13.2357 45.288 24.4487 45.288C35.6616 45.288 44.7841 36.1655 44.7841 24.9526C44.7841 13.7397 35.6616 4.61719 24.4487 4.61719ZM33.9819 26.8052C31.9992 29.221 24.4507 35.8239 24.4507 35.8239C24.4507 35.8239 16.8392 29.221 14.8707 26.7909C12.5504 23.9216 12.5931 20.2002 14.9704 17.943C16.2108 16.7635 17.856 16.1169 19.6048 16.1169C21.3536 16.1169 22.9967 16.7656 24.2372 17.943L24.4324 18.128L24.6154 17.9531C25.8675 16.772 27.5266 16.1187 29.2479 16.1291C30.9967 16.1291 32.6398 16.7737 33.8823 17.9531C36.3225 20.2673 36.3591 23.9053 33.9819 26.8052Z" fill="white"/>
</svg>
