<svg width="41" height="34" viewBox="0 0 41 34" fill="none" xmlns="http://www.w3.org/2000/svg">
<path d="M2.07422 13.9902L6.02916 4.76233C6.67296 3.26012 8.31335 2.26562 10.1464 2.26562H30.8506C32.6837 2.26562 34.324 3.26012 34.9678 4.76233L38.9228 13.9902" stroke="#242424" stroke-width="2.98772" stroke-linecap="round" stroke-linejoin="round"/>
<path d="M2.07422 13.9844H38.9228V29.0588H2.07422V13.9844Z" stroke="#242424" stroke-width="2.98772" stroke-linecap="round" stroke-linejoin="round"/>
<path d="M5.42409 29.0625V32.4124H2.07422V29.0625" stroke="#242424" stroke-width="2.98772" stroke-linecap="round" stroke-linejoin="round"/>
<path d="M38.9241 29.0625V32.4124H35.5742V29.0625" stroke="#242424" stroke-width="2.98772" stroke-linecap="round" stroke-linejoin="round"/>
<path d="M8.77454 22.3655C9.69959 22.3655 10.4495 21.6156 10.4495 20.6906C10.4495 19.7655 9.69959 19.0156 8.77454 19.0156C7.8495 19.0156 7.09961 19.7655 7.09961 20.6906C7.09961 21.6156 7.8495 22.3655 8.77454 22.3655Z" stroke="#242424" stroke-width="2.98772" stroke-linecap="round" stroke-linejoin="round"/>
<path d="M32.2218 22.3655C33.1469 22.3655 33.8967 21.6156 33.8967 20.6906C33.8967 19.7655 33.1469 19.0156 32.2218 19.0156C31.2968 19.0156 30.5469 19.7655 30.5469 20.6906C30.5469 21.6156 31.2968 22.3655 32.2218 22.3655Z" stroke="#242424" stroke-width="2.98772" stroke-linecap="round" stroke-linejoin="round"/>
</svg>
