<svg width="24" height="26" viewBox="0 0 24 26" fill="none" xmlns="http://www.w3.org/2000/svg">
<path d="M12.2586 25.1377C12.044 25.1377 11.8382 25.0567 11.6864 24.9126C11.5347 24.7685 11.4494 24.573 11.4494 24.3692V22.3819L10.404 23.3763C10.252 23.5204 10.046 23.6013 9.83131 23.6012C9.61659 23.601 9.41072 23.5199 9.25899 23.3756C9.10726 23.2313 9.02211 23.0356 9.02226 22.8317C9.02241 22.6278 9.10785 22.4323 9.2598 22.2882L11.4494 20.2087V14.1732L5.94703 17.1902L5.14433 20.0335C5.08854 20.2304 4.95267 20.3982 4.76662 20.4999C4.58058 20.6017 4.35959 20.6291 4.15228 20.5761C3.94497 20.5231 3.76832 20.394 3.66119 20.2174C3.55405 20.0407 3.52521 19.8308 3.58101 19.6339L3.96456 18.2784L2.152 19.2712C1.96625 19.3715 1.74627 19.398 1.54005 19.3448C1.33384 19.2916 1.15815 19.1632 1.0513 18.9874C0.944464 18.8117 0.915153 18.6029 0.96977 18.4068C1.02439 18.2106 1.15849 18.0429 1.34283 17.9402L3.15538 16.9474L1.72476 16.5831C1.62211 16.5569 1.52591 16.5117 1.44165 16.4502C1.35738 16.3886 1.28671 16.3119 1.23366 16.2244C1.18061 16.1369 1.14623 16.0404 1.13247 15.9403C1.11872 15.8402 1.12585 15.7385 1.15348 15.641C1.18111 15.5435 1.22869 15.4522 1.29349 15.3721C1.3583 15.2921 1.43907 15.225 1.53119 15.1746C1.62331 15.1242 1.72498 15.0916 1.83039 15.0785C1.9358 15.0654 2.04288 15.0722 2.14553 15.0985L5.13624 15.8592L10.6402 12.8423L5.13786 9.82528L2.14391 10.5861C1.93795 10.6348 1.72007 10.6047 1.53723 10.5024C1.35438 10.4 1.22123 10.2335 1.16645 10.0387C1.11168 9.84394 1.13969 9.63655 1.24442 9.46122C1.34916 9.28588 1.52225 9.15666 1.72638 9.10139L3.15538 8.73714L1.34283 7.74429C1.25006 7.6942 1.16864 7.62718 1.10326 7.54708C1.03788 7.46699 0.989822 7.3754 0.961862 7.2776C0.933902 7.17979 0.926589 7.0777 0.940344 6.9772C0.954098 6.8767 0.98865 6.77978 1.04201 6.69201C1.09537 6.60425 1.16648 6.52737 1.25125 6.46581C1.33602 6.40425 1.43277 6.35922 1.53594 6.33332C1.63911 6.30741 1.74666 6.30114 1.85239 6.31487C1.95812 6.3286 2.05994 6.36206 2.152 6.41331L3.96456 7.40616L3.58101 6.04906C3.55156 5.95097 3.54297 5.8483 3.55574 5.74702C3.56851 5.64575 3.60238 5.5479 3.65537 5.45918C3.70837 5.37047 3.77943 5.29266 3.86442 5.23029C3.94941 5.16793 4.04662 5.12226 4.15038 5.09594C4.25414 5.06962 4.36239 5.06318 4.4688 5.077C4.57521 5.09082 4.67766 5.12461 4.77018 5.17642C4.86269 5.22823 4.94342 5.29701 5.00766 5.37875C5.0719 5.46049 5.11836 5.55356 5.14433 5.65253L5.94542 8.49431L11.4494 11.5113V5.47579L9.2598 3.39633C9.18456 3.32498 9.12486 3.24026 9.08411 3.147C9.04335 3.05374 9.02233 2.95378 9.02226 2.8528C9.02218 2.75183 9.04305 2.65183 9.08367 2.55852C9.12429 2.46521 9.18386 2.38041 9.25899 2.30896C9.33412 2.23751 9.42333 2.18081 9.52153 2.14211C9.61972 2.1034 9.72499 2.08344 9.83131 2.08337C9.93763 2.0833 10.0429 2.10312 10.1412 2.14169C10.2394 2.18027 10.3287 2.23684 10.404 2.30819L11.4494 3.30258V1.31534C11.4494 1.11153 11.5347 0.916067 11.6864 0.771952C11.8382 0.627838 12.044 0.546875 12.2586 0.546875C12.4732 0.546875 12.679 0.627838 12.8308 0.771952C12.9825 0.916067 13.0678 1.11153 13.0678 1.31534V3.30258L14.1148 2.30819C14.2668 2.1641 14.4728 2.08323 14.6875 2.08337C14.9022 2.08352 15.1081 2.16466 15.2598 2.30896C15.4116 2.45325 15.4967 2.64888 15.4966 2.8528C15.4964 3.05673 15.411 3.25224 15.259 3.39633L13.0678 5.47579V11.5113L18.5702 8.49431L19.3729 5.651C19.4287 5.45412 19.5645 5.28635 19.7506 5.18461C19.9366 5.08286 20.1576 5.05547 20.3649 5.10846C20.5722 5.16145 20.7489 5.29048 20.856 5.46717C20.9631 5.64385 20.992 5.85372 20.9362 6.0506L20.5543 7.40616L22.3668 6.41331C22.5526 6.31301 22.7726 6.28656 22.9788 6.33973C23.185 6.3929 23.3607 6.52137 23.4675 6.69711C23.5744 6.87285 23.6037 7.08158 23.549 7.27777C23.4944 7.47395 23.3603 7.64166 23.176 7.74429L21.3634 8.73714L22.7924 9.10139C22.9997 9.15438 23.1764 9.28341 23.2835 9.4601C23.3907 9.63678 23.4195 9.84665 23.3637 10.0435C23.3079 10.2404 23.1721 10.4082 22.986 10.5099C22.8 10.6117 22.579 10.639 22.3717 10.5861L19.381 9.82528L13.8769 12.8423L19.3793 15.8592L22.3717 15.0985C22.579 15.0457 22.7999 15.0733 22.9858 15.1752C23.1717 15.277 23.3073 15.4449 23.3629 15.6418C23.4185 15.8386 23.3894 16.0484 23.2822 16.225C23.1749 16.4015 22.9981 16.5303 22.7908 16.5831L21.3618 16.9474L23.1744 17.9402C23.3587 18.0429 23.4928 18.2106 23.5474 18.4068C23.602 18.6029 23.5727 18.8117 23.4659 18.9874C23.3591 19.1632 23.1834 19.2916 22.9771 19.3448C22.7709 19.398 22.5509 19.3715 22.3652 19.2712L20.5526 18.2784L20.9346 19.6355C20.964 19.7336 20.9726 19.8362 20.9598 19.9375C20.9471 20.0388 20.9132 20.1366 20.8602 20.2253C20.8072 20.3141 20.7361 20.3919 20.6512 20.4542C20.5662 20.5166 20.469 20.5623 20.3652 20.5886C20.2614 20.6149 20.1532 20.6213 20.0468 20.6075C19.9404 20.5937 19.8379 20.5599 19.7454 20.5081C19.6529 20.4563 19.5722 20.3875 19.5079 20.3058C19.4437 20.224 19.3972 20.131 19.3712 20.032L18.5702 17.1902L13.0678 14.1732V20.2087L15.2574 22.2882C15.4093 22.4323 15.4948 22.6278 15.4949 22.8317C15.4951 23.0356 15.4099 23.2313 15.2582 23.3756C15.1065 23.5199 14.9006 23.601 14.6859 23.6012C14.4712 23.6013 14.2652 23.5204 14.1132 23.3763L13.0662 22.3819V24.3692C13.0662 24.573 12.9809 24.7685 12.8292 24.9126C12.6774 25.0567 12.4716 25.1377 12.257 25.1377H12.2586Z" fill="#242424"/>
</svg>
