<svg width="28" height="34" viewBox="0 0 28 34" fill="none" xmlns="http://www.w3.org/2000/svg">
<path fill-rule="evenodd" clip-rule="evenodd" d="M8.65046 3.67969C8.10569 3.67969 7.58323 3.8961 7.19802 4.28131C6.81281 4.66652 6.5964 5.18898 6.5964 5.73375H4.54234C3.99757 5.73375 3.47511 5.95016 3.0899 6.33537C2.70469 6.72058 2.48828 7.24304 2.48828 7.78781V26.959C2.48828 27.5038 2.70469 28.0263 3.0899 28.4115C3.47511 28.7967 3.99757 29.0131 4.54234 29.0131H12.7586V27.6437H4.54234C4.36075 27.6437 4.1866 27.5716 4.05819 27.4432C3.92979 27.3148 3.85765 27.1406 3.85765 26.959V7.78781C3.85765 7.60622 3.92979 7.43206 4.05819 7.30366C4.1866 7.17526 4.36075 7.10312 4.54234 7.10312H6.5964C6.5964 7.64789 6.81281 8.17035 7.19802 8.55556C7.58323 8.94077 8.10569 9.15718 8.65046 9.15718H14.128C14.6727 9.15718 15.1952 8.94077 15.5804 8.55556C15.9656 8.17035 16.182 7.64789 16.182 7.10312H18.2361C18.4177 7.10312 18.5918 7.17526 18.7202 7.30366C18.8486 7.43206 18.9208 7.60622 18.9208 7.78781V18.0581H20.2901V7.78781C20.2901 7.24304 20.0737 6.72058 19.6885 6.33537C19.3033 5.95016 18.7808 5.73375 18.2361 5.73375H16.182C16.182 5.18898 15.9656 4.66652 15.5804 4.28131C15.1952 3.8961 14.6727 3.67969 14.128 3.67969H8.65046ZM7.96577 5.73375C7.96577 5.55216 8.03791 5.378 8.16631 5.2496C8.29472 5.1212 8.46887 5.04906 8.65046 5.04906H14.128C14.3095 5.04906 14.4837 5.1212 14.6121 5.2496C14.7405 5.378 14.8126 5.55216 14.8126 5.73375V7.10312C14.8126 7.28471 14.7405 7.45886 14.6121 7.58727C14.4837 7.71567 14.3095 7.78781 14.128 7.78781H8.65046C8.46887 7.78781 8.29472 7.71567 8.16631 7.58727C8.03791 7.45886 7.96577 7.28471 7.96577 7.10312V5.73375ZM10.7045 13.95V11.8959H12.0739V13.95H14.128V15.3194H12.0739V17.3734H10.7045V15.3194H8.65046V13.95H10.7045ZM13.4433 20.1122C13.4433 19.9306 13.5154 19.7564 13.6438 19.628C13.7722 19.4996 13.9464 19.4275 14.128 19.4275H22.3442C22.5258 19.4275 22.6999 19.4996 22.8283 19.628C22.9567 19.7564 23.0289 19.9306 23.0289 20.1122V24.7605C23.0288 25.5495 22.834 26.3263 22.4617 27.0219C22.0894 27.7175 21.5512 28.3105 20.8947 28.7481L18.6161 30.2681C18.5036 30.3432 18.3713 30.3832 18.2361 30.3832C18.1008 30.3832 17.9686 30.3432 17.8561 30.2681L15.5774 28.7481C14.9211 28.3105 14.3829 27.7177 14.0106 27.0222C13.6383 26.3267 13.4434 25.5501 13.4433 24.7612V20.1122ZM14.8126 20.7968V24.7605C14.8127 25.3241 14.9519 25.879 15.2179 26.3758C15.4839 26.8727 15.8685 27.2962 16.3374 27.6088L18.2361 28.8761L20.1347 27.6095C20.6037 27.2969 20.9882 26.8734 21.2542 26.3765C21.5202 25.8796 21.6594 25.3248 21.6595 24.7612V20.7968H14.8126ZM18.0355 26.0737L20.7742 23.335L19.8061 22.3668L17.5514 24.6215L16.6661 23.7362L15.6979 24.7044L17.0673 26.0737C17.1957 26.2021 17.3698 26.2742 17.5514 26.2742C17.7329 26.2742 17.9071 26.2021 18.0355 26.0737Z" fill="#242424"/>
</svg>
