<svg width="69" height="15" viewBox="0 0 69 15" fill="none" xmlns="http://www.w3.org/2000/svg">
<g clip-path="url(#clip0_249_5056)">
<path d="M2.96075 12.3206C3.8527 12.8398 4.82453 13.0928 5.87623 13.0928C6.92793 13.0928 7.91306 12.8398 8.80501 12.3206C9.69696 11.7881 10.4025 11.0826 10.9217 10.1906C11.4409 9.29866 11.7072 8.32684 11.7072 7.27514C11.7072 6.22344 11.4409 5.25162 10.9217 4.35967C10.4025 3.46772 9.69696 2.76215 8.80501 2.22964C7.91306 1.71045 6.92793 1.45751 5.87623 1.45751C4.82453 1.45751 3.8527 1.71045 2.96075 2.22964C2.06881 2.76215 1.36323 3.46772 0.844041 4.35967C0.324847 5.25162 0.0585938 6.22344 0.0585938 7.27514C0.0585938 8.32684 0.324847 9.29866 0.844041 10.1906C1.36323 11.0826 2.06881 11.7881 2.96075 12.3206Z" fill="#3C5F63"/>
<path d="M16.5936 12.3206C17.4855 12.8398 18.4573 13.0928 19.509 13.0928C20.5607 13.0928 21.5459 12.8398 22.4378 12.3206C23.3298 11.7881 24.0353 11.0826 24.5545 10.1906C25.0737 9.29866 25.34 8.32684 25.34 7.27514C25.34 6.22344 25.0737 5.25162 24.5545 4.35967C24.0353 3.46772 23.3298 2.76215 22.4378 2.22964C21.5459 1.71045 20.5607 1.45751 19.509 1.45751C18.4573 1.45751 17.4855 1.71045 16.5936 2.22964C15.7016 2.76215 14.996 3.46772 14.4769 4.35967C13.9577 5.25162 13.6914 6.22344 13.6914 7.27514C13.6914 8.32684 13.9577 9.29866 14.4769 10.1906C14.996 11.0826 15.7016 11.7881 16.5936 12.3206Z" fill="#3C5F63"/>
<path d="M30.2244 12.3206C31.1164 12.8398 32.0882 13.0928 33.1399 13.0928C34.1916 13.0928 35.1767 12.8398 36.0687 12.3206C36.9606 11.7881 37.6662 11.0826 38.1854 10.1906C38.7046 9.29866 38.9708 8.32684 38.9708 7.27514C38.9708 6.22344 38.7046 5.25162 38.1854 4.35967C37.6662 3.46772 36.9606 2.76215 36.0687 2.22964C35.1767 1.71045 34.1916 1.45751 33.1399 1.45751C32.0882 1.45751 31.1164 1.71045 30.2244 2.22964C29.3325 2.76215 28.6269 3.46772 28.1077 4.35967C27.5885 5.25162 27.3223 6.22344 27.3223 7.27514C27.3223 8.32684 27.5885 9.29866 28.1077 10.1906C28.6269 11.0826 29.3325 11.7881 30.2244 12.3206Z" fill="#3C5F63"/>
<path d="M43.8572 12.3206C44.7492 12.8398 45.721 13.0928 46.7727 13.0928C47.8244 13.0928 48.8095 12.8398 49.7015 12.3206C50.5934 11.7881 51.299 11.0826 51.8182 10.1906C52.3374 9.29866 52.6037 8.32684 52.6037 7.27514C52.6037 6.22344 52.3374 5.25162 51.8182 4.35967C51.299 3.46772 50.5934 2.76215 49.7015 2.22964C48.8095 1.71045 47.8244 1.45751 46.7727 1.45751C45.721 1.45751 44.7492 1.71045 43.8572 2.22964C42.9653 2.76215 42.2597 3.46772 41.7405 4.35967C41.2213 5.25162 40.9551 6.22344 40.9551 7.27514C40.9551 8.32684 41.2213 9.29866 41.7405 10.1906C42.2597 11.0826 42.9653 11.7881 43.8572 12.3206Z" fill="#3C5F63"/>
<path d="M57.4901 12.3206C58.382 12.8398 59.3538 13.0928 60.4055 13.0928C61.4572 13.0928 62.4424 12.8398 63.3343 12.3206C64.2263 11.7881 64.9318 11.0826 65.451 10.1906C65.9702 9.29866 66.2365 8.32684 66.2365 7.27514C66.2365 6.22344 65.9702 5.25162 65.451 4.35967C64.9318 3.46772 64.2263 2.76215 63.3343 2.22964C62.4424 1.71045 61.4572 1.45751 60.4055 1.45751C59.3538 1.45751 58.382 1.71045 57.4901 2.22964C56.5981 2.76215 55.8925 3.46772 55.3733 4.35967C54.8541 5.25162 54.5879 6.22344 54.5879 7.27514C54.5879 8.32684 54.8541 9.29866 55.3733 10.1906C55.8925 11.0826 56.5981 11.7881 57.4901 12.3206ZM62.6021 11.0559C61.9232 11.442 61.2043 11.6284 60.4188 11.6284H60.4055V2.89527C61.2043 2.89527 61.9232 3.09496 62.6021 3.49434C63.2677 3.88041 63.8003 4.41292 64.1996 5.09186C64.5857 5.7575 64.7854 6.48969 64.7854 7.27514C64.7854 8.06059 64.5857 8.79278 64.1996 9.45842C63.8003 10.1374 63.2677 10.6566 62.6021 11.0559Z" fill="#3C5F63"/>
</g>
<defs>
<clipPath id="clip0_249_5056">
<rect width="68.1608" height="13.6322" fill="white" transform="matrix(1 0 0 -1 0.0585938 14.0908)"/>
</clipPath>
</defs>
</svg>
