<svg width="24" height="24" viewBox="0 0 24 24" fill="none" xmlns="http://www.w3.org/2000/svg">
<path d="M12.0039 0C6.99403 0 5.52883 0.00516967 5.24402 0.0288024C4.2159 0.114287 3.57615 0.276208 2.87917 0.623314C2.34204 0.890106 1.91843 1.19936 1.50035 1.63288C0.738959 2.42347 0.277507 3.3961 0.110461 4.55226C0.0292458 5.11354 0.00561946 5.22801 0.000820359 8.09496C-0.00102545 9.05061 0.000820359 10.3083 0.000820359 11.9953C0.000820359 17.0025 0.00635778 18.4666 0.0303533 18.7509C0.113415 19.7516 0.270308 20.3812 0.602553 21.0699C1.23751 22.3882 2.45021 23.3778 3.87886 23.7471C4.37354 23.8745 4.9199 23.9446 5.6213 23.9778C5.91848 23.9908 8.94744 24 11.9783 24C15.0091 24 18.0399 23.9963 18.3297 23.9815C19.1418 23.9433 19.6134 23.88 20.1349 23.7452C20.8433 23.5635 21.5035 23.2293 22.0693 22.7659C22.6352 22.3026 23.0932 21.7212 23.4112 21.0625C23.737 20.3905 23.9022 19.7369 23.9769 18.7884C23.9932 18.5816 24 15.2847 24 11.9922C24 8.69907 23.9926 5.40821 23.9764 5.20143C23.9007 4.23765 23.7355 3.5896 23.3992 2.90462C23.1232 2.34389 22.8168 1.92515 22.372 1.49699C21.5783 0.738524 20.6074 0.276947 19.4503 0.11004C18.8897 0.0289871 18.778 0.00498504 15.9096 0H12.0039Z" fill="url(#paint0_radial_4183_2196)"/>
<path d="M12.0039 0C6.99403 0 5.52883 0.00516967 5.24402 0.0288024C4.2159 0.114287 3.57615 0.276208 2.87917 0.623314C2.34204 0.890106 1.91843 1.19936 1.50035 1.63288C0.738959 2.42347 0.277507 3.3961 0.110461 4.55226C0.0292458 5.11354 0.00561946 5.22801 0.000820359 8.09496C-0.00102545 9.05061 0.000820359 10.3083 0.000820359 11.9953C0.000820359 17.0025 0.00635778 18.4666 0.0303533 18.7509C0.113415 19.7516 0.270308 20.3812 0.602553 21.0699C1.23751 22.3882 2.45021 23.3778 3.87886 23.7471C4.37354 23.8745 4.9199 23.9446 5.6213 23.9778C5.91848 23.9908 8.94744 24 11.9783 24C15.0091 24 18.0399 23.9963 18.3297 23.9815C19.1418 23.9433 19.6134 23.88 20.1349 23.7452C20.8433 23.5635 21.5035 23.2293 22.0693 22.7659C22.6352 22.3026 23.0932 21.7212 23.4112 21.0625C23.737 20.3905 23.9022 19.7369 23.9769 18.7884C23.9932 18.5816 24 15.2847 24 11.9922C24 8.69907 23.9926 5.40821 23.9764 5.20143C23.9007 4.23765 23.7355 3.5896 23.3992 2.90462C23.1232 2.34389 22.8168 1.92515 22.372 1.49699C21.5783 0.738524 20.6074 0.276947 19.4503 0.11004C18.8897 0.0289871 18.778 0.00498504 15.9096 0H12.0039Z" fill="url(#paint1_radial_4183_2196)"/>
<path d="M11.9981 3.13867C9.59193 3.13867 9.28995 3.1492 8.3449 3.19222C7.40169 3.23542 6.75788 3.38479 6.19454 3.60394C5.61181 3.8303 5.11751 4.13309 4.62505 4.62587C4.13222 5.11847 3.8295 5.61291 3.60247 6.19561C3.38282 6.75929 3.23331 7.40346 3.19085 8.34656C3.14877 9.29187 3.1377 9.59411 3.1377 12.001C3.1377 14.4078 3.1484 14.7089 3.19122 15.6543C3.2346 16.5977 3.38393 17.2417 3.60284 17.8052C3.82932 18.3881 4.13203 18.8825 4.62468 19.3751C5.11695 19.8681 5.61126 20.1716 6.19361 20.398C6.75732 20.6171 7.40132 20.7665 8.34435 20.8097C9.2894 20.8527 9.59119 20.8632 11.9972 20.8632C14.4036 20.8632 14.7046 20.8527 15.6497 20.8097C16.5929 20.7665 17.2374 20.6171 17.8012 20.398C18.3837 20.1716 18.8773 19.8681 19.3695 19.3751C19.8624 18.8825 20.1651 18.3881 20.3921 17.8054C20.6099 17.2417 20.7594 16.5975 20.8037 15.6544C20.8462 14.7091 20.8573 14.4078 20.8573 12.001C20.8573 9.59411 20.8462 9.29205 20.8037 8.34674C20.7594 7.40328 20.6099 6.75929 20.3921 6.19579C20.1651 5.61291 19.8624 5.11847 19.3695 4.62587C18.8767 4.13291 18.3839 3.83012 17.8006 3.60394C17.2358 3.38479 16.5916 3.23542 15.6484 3.19222C14.7033 3.1492 14.4025 3.13867 11.9955 3.13867H11.9981ZM11.2033 4.73573C11.4392 4.73536 11.7024 4.73573 11.9981 4.73573C14.3637 4.73573 14.6441 4.74422 15.5782 4.78669C16.4421 4.8262 16.9109 4.97058 17.2232 5.09188C17.6367 5.25251 17.9315 5.44453 18.2414 5.75471C18.5515 6.06489 18.7434 6.3603 18.9044 6.77387C19.0257 7.0859 19.1702 7.55486 19.2095 8.41893C19.252 9.35317 19.2612 9.6338 19.2612 11.9989C19.2612 14.364 19.252 14.6447 19.2095 15.5789C19.17 16.443 19.0257 16.912 18.9044 17.224C18.7438 17.6376 18.5515 17.932 18.2414 18.242C17.9313 18.5522 17.6369 18.7442 17.2232 18.9049C16.9113 19.0267 16.4421 19.1707 15.5782 19.2102C14.6443 19.2527 14.3637 19.2619 11.9981 19.2619C9.63235 19.2619 9.35197 19.2527 8.41799 19.2102C7.55416 19.1704 7.08532 19.026 6.77283 18.9047C6.35937 18.7441 6.06404 18.552 5.75394 18.2419C5.44385 17.9317 5.25188 17.637 5.09093 17.2232C4.96966 16.9112 4.82513 16.4423 4.78582 15.5782C4.74336 14.644 4.73487 14.3633 4.73487 11.9967C4.73487 9.63011 4.74336 9.35095 4.78582 8.41672C4.82532 7.55265 4.96966 7.08368 5.09093 6.77129C5.25151 6.35771 5.44385 6.0623 5.75394 5.75212C6.06404 5.44194 6.35937 5.24993 6.77283 5.08893C7.08514 4.96707 7.55416 4.82306 8.41799 4.78336C9.23532 4.74644 9.55206 4.73536 11.2033 4.73351V4.73573ZM16.7274 6.20724C16.5172 6.20724 16.3116 6.26962 16.1367 6.38649C15.9619 6.50336 15.8256 6.66948 15.7452 6.86382C15.6647 7.05817 15.6437 7.27202 15.6847 7.47832C15.7258 7.68463 15.8271 7.87412 15.9758 8.02283C16.1245 8.17155 16.314 8.27281 16.5203 8.3138C16.7265 8.35479 16.9403 8.33368 17.1346 8.25313C17.3288 8.17258 17.4949 8.03621 17.6116 7.86128C17.7284 7.68634 17.7907 7.48069 17.7906 7.27034C17.7906 6.68322 17.3144 6.20687 16.7274 6.20687V6.20724ZM11.9981 7.4498C9.48542 7.4498 7.44821 9.48758 7.44821 12.001C7.44821 14.5143 9.48542 16.5512 11.9981 16.5512C14.5108 16.5512 16.5475 14.5143 16.5475 12.001C16.5475 9.48758 14.5106 7.4498 11.9979 7.4498H11.9981ZM11.9981 9.04686C13.6291 9.04686 14.9514 10.3694 14.9514 12.001C14.9514 13.6324 13.6291 14.9551 11.9981 14.9551C10.367 14.9551 9.04483 13.6324 9.04483 12.001C9.04483 10.3694 10.367 9.04686 11.9981 9.04686Z" fill="white"/>
<defs>
<radialGradient id="paint0_radial_4183_2196" cx="0" cy="0" r="1" gradientUnits="userSpaceOnUse" gradientTransform="translate(6.37503 25.8485) rotate(-90) scale(23.7858 22.1226)">
<stop stop-color="#FFDD55"/>
<stop offset="0.1" stop-color="#FFDD55"/>
<stop offset="0.5" stop-color="#FF543E"/>
<stop offset="1" stop-color="#C837AB"/>
</radialGradient>
<radialGradient id="paint1_radial_4183_2196" cx="0" cy="0" r="1" gradientUnits="userSpaceOnUse" gradientTransform="translate(-4.02013 1.72892) rotate(78.6806) scale(10.6323 43.827)">
<stop stop-color="#3771C8"/>
<stop offset="0.128" stop-color="#3771C8"/>
<stop offset="1" stop-color="#6600FF" stop-opacity="0"/>
</radialGradient>
</defs>
</svg>
