<svg width="192" height="80" viewBox="0 0 192 80" fill="none" xmlns="http://www.w3.org/2000/svg">
<mask id="path-1-inside-1_249_3690" fill="white">
<path d="M87.6334 0.116831L91.6037 0.747727L92.462 1.26179L93.5539 2.93249L94.3596 3.16032L96.374 2.58784L98.0964 3.90805L99.1299 3.79705L101.6 5.11726L104.361 4.88944L107.292 6.32648L110.947 9.14214L113.878 8.79748L114.398 7.0742L116.004 6.32648L117.271 4.59736L117.674 4.48637L118.59 5.4035L119.741 4.65577L120.202 5.52033L121.008 5.34508L121.924 5.68974L123.285 5.10558L124.587 5.61964L126.484 5.44439L131.056 6.68865L131.768 7.66421L132.259 9.66204L133.187 10.4623L134.034 10.2404L138.027 11.4846L139.23 11.397L139.983 12.1973L141.268 12.3258L141.758 11.7942L142.336 11.841L143.049 12.3726L147.883 11.2159L149.752 11.4846L150.371 11.7942L150.639 13.0852L150.995 13.4825L151.036 14.68L151.527 14.9487L150.814 16.1462L148.508 18.5471L148.596 18.8568L150.814 20.0134L151.48 20.0543L152.192 19.4351L152.548 19.4818L153.92 20.767L155.479 20.4106L156.011 20.6793H157.698L158.405 21.2109L158.673 22.0989L158.498 23.9214L159.561 26.188L160.495 26.8072H162.848L163.426 27.2103L163.111 29.5177L163.467 30.3647L163.689 33.2914L163.157 34.6233L162.492 34.67L161.604 33.4725V32.6255L162.095 31.6032L161.779 30.984L160.407 29.8273L158.142 29.3425L156.898 28.4954L155.789 28.8518L155.742 29.3425L157.295 32.8942L158.521 33.4082L158.761 34.1968L159.549 34.9855L161.447 36.2531L162.947 36.4868L165.078 36.1713L166.345 36.4108L168.003 37.439L169.189 36.6445L173.212 36.2531L175.506 36.884L176.528 37.7544H177.398L178.98 35.7799L181.111 35.225L184.585 35.0673L186.086 34.5941L187.19 33.4082L188.854 32.5378L189.799 32.3042L191.061 32.5378L190.745 34.0391L190.033 35.149L190.272 37.9881L188.929 41.3879L188.772 43.9933L188.299 45.1032L186.244 46.3649L185.689 47.1594L183.797 47.2354L182.373 48.4971L179.056 48.9762L176.686 50.5534L173.136 51.342L172.82 52.5279L174.082 54.4264L174.479 56.5586L172.505 56.2431L170.135 56.874L167.525 57.0318L166.345 56.7981L165.709 57.9022L164.763 58.1417L164.051 58.7726L163.893 59.4852L161.522 59.8766L161.131 60.6652L161.207 61.6934L161.762 62.6456L164.29 64.5382V65.4086L162.392 66.9099L161.207 68.6507L160.892 69.673L160.004 68.493L158.416 68.4521L157.243 67.8504L155.468 67.4298L155.24 64.0592L155.012 63.5335L154.119 63.0778L154.078 61.6408L152.91 61.1092L152.303 61.2202L152.262 62.3184L151.544 62.961L151.392 64.0592L148.175 67.2429L147.305 70.9523H146.739L144.619 69.9651L143.638 68.7208L142.237 67.6577V66.8983L143.749 65.0465L146.324 63.5335L146.78 62.815L146.324 61.2202L145.489 60.2738L145.075 60.3498L143.072 61.0683L142.955 61.4889L143.749 62.5112V63.1538L143.37 63.5335L139.931 63.0369L137.922 63.0778L136.445 62.5871L135.499 63.3407L135.423 64.5149L135.126 64.8946L133.952 65.3853V65.876L133.117 66.7113L131.453 66.4484L128.65 67.0151L128.084 67.6986L127.594 69.5153L127.67 71.5949L128.236 72.6931L128.125 73.6804L127.366 75.0006L125.585 75.3044L124.038 76.9458L118.269 76.4376L117.516 77.197L117.498 77.5651L116.611 78.231L116.5 78.7684L115.899 79.1657L115.134 79.1365L114.1 78.4997L112.372 75.8535L111.73 75.6315L111.298 75.6607L111.064 76.128L107.362 77.197L105.961 77.1328L100.922 75.5614L100.555 75.7658L100.122 75.427L100.905 73.4584L100.654 72.1732L98.3884 69.7723L97.3199 69.7373L97.2907 68.4054L96.701 67.3948L94.7508 66.2849L92.8824 66.7055L91.522 64.9822L91.0666 64.7836L90.6112 64.9471L90.1207 65.8292L88.8128 66.6704L87.1138 67.6401L85.3797 68.0023L84.9126 68.604L84.1769 68.7384L82.9099 68.1075L82.7931 67.459L84.0952 67.2312L85.6132 65.6014L85.5899 64.4448L84.1594 62.9785L83.9609 62.2951L84.2586 61.2144L84.0601 59.4911L83.2135 58.9011L81.6896 59.0354L80.7963 59.5904L79.5993 61.0216L78.5542 60.823L76.1019 59.4443L73.8015 59.7773L71.7638 58.7433L70.8646 56.6404L71.5477 55.4487L72.5637 54.5082L73.0308 52.9718L72.9841 52.4169L71.7112 50.5884L71.4543 49.7122L72.0674 49.1981L71.7988 48.2635L70.7303 48.7016L69.7961 48.6315L69.4983 46.9199L67.9628 44.963L67.8285 43.561L67.3964 43.3624L66.795 43.7946L66.9643 45.1966H66.5965L65.7966 43.6953L64.8274 43.5259L64.4245 44.0926L64.8624 45.2959L64.4245 45.8976L63.7589 45.5939L63.5662 44.6417L63.8465 43.8764L65.2594 42.3576L65.166 39.8808L65.5222 39.6529L65.563 38.0523L64.7631 38.0231L64.0275 38.8234L63.0816 39.2615L62.7546 40.4007L62.1941 40.8914L60.5592 41.458L60.6585 42.1239H62.0248L62.6612 42.7256L62.5269 44.7702L61.8379 46.0729L62.1999 47.3113L62.0364 47.837L61.4526 47.9305L61.0264 49.2974L60.1564 49.0638L60.0922 50.3022L59.4557 51.1025L58.1771 51.9846L56.7407 51.453L55.5438 51.9554L54.1717 51.5523L52.9047 52.3877L52.9397 53.1529L53.2375 53.2464L53.0448 53.9941L53.2375 54.8879L53.9907 55.7232L53.8389 56.5936L52.8755 57.5575L54.2418 59.2925L52.8054 61.7985L52.204 62.0322L51.1356 61.5298L50.7736 59.4619L49.67 58.7258L48.0702 59.4268L47.6031 60.9982L46.9025 60.9281L46.3711 60.3965L46.2369 58.1417L45.437 57.7094L45.0341 57.6743L44.5028 58.1417L44.1466 57.7152L42.3775 57.54L40.7134 58.609L40.5091 59.678L39.4114 60.0811L38.7458 59.9935L37.578 58.4922L36.5095 57.8905L34.8397 57.7269L33.6427 58.7784L32.0371 58.5915L31.57 57.5925L30.2388 56.6929L29.0068 54.8587L28.5689 54.7535L27.1676 54.7886L26.7822 55.0748L26.391 56.2431L25.7021 57.0902L25.3517 56.6053L25.3693 54.4556L24.5985 53.8189V52.6622L25.1999 50.9331L25.0365 47.212L22.2689 42.7782L20.7975 42.4394L19.5305 42.8775L18.9759 42.7607L18.9642 43.0761L17.0316 43.3448L14.6961 45.9794L13.359 46.178L12.127 45.5763L11.5607 43.9699L9.09089 42.1064L8.4136 42.1415L7.44437 40.5409L6.64447 40.8096L4.8403 39.4076L3.91194 39.945L3.27553 40.8096L2.53984 40.8388L0.905004 40.3072L0 39.5244L0.0350309 37.3396L1.47136 36.0019L1.73994 34.267L4.27395 34.0975L5.54095 33.1629L7.11157 32.8299L8.07496 32.164L9.64557 29.8273L11.0469 29.3249L12.1445 28.1274L13.4116 28.1566L14.1064 26.8247L13.9137 25.598L14.1764 24.1843L14.8829 23.5709L16.652 22.8057L17.4636 21.8068L17.6855 21.0357L19.4838 19.7622L20.0385 18.3485L20.8851 17.4957L22.6893 16.894L24.1548 17.1276L24.4701 16.1988L24.8905 16.1287L26.7589 16.9641L27.7223 16.7304L28.5747 15.3167L28.6389 14.1776L27.9208 12.0922L28.7908 9.32323L32.4283 10.6902L33.6602 10.6551L34.828 10.2228L35.2659 9.32323L37.6306 7.635L38.7983 7.26698L39.2304 6.33232L41.7352 4.56815L43.3992 4.43379L44.9115 3.48161L45.3552 2.96755L45.653 1.14496L46.9433 0.519904L49.7576 0.689312L50.6217 0.864562L52.2916 1.89853L54.703 2.06793L56.081 1.1508L58.2646 1.09238L60.0454 0.286238L60.9096 0.344654L63.6129 1.43704L65.2769 3.10774L71.6587 4.54478L75.6232 6.61272L77.1763 7.0742L79.2432 8.62224L81.4269 8.68065L81.9465 9.31738L83.8441 8.62224L84.5331 7.58827L84.7608 6.61272L84.5331 4.54478L84.7608 3.4524L86.0278 1.43704L85.9694 0.519904L86.6 0L87.6334 0.116831Z"/>
</mask>
<path d="M87.6334 0.116831L91.6037 0.747727L92.462 1.26179L93.5539 2.93249L94.3596 3.16032L96.374 2.58784L98.0964 3.90805L99.1299 3.79705L101.6 5.11726L104.361 4.88944L107.292 6.32648L110.947 9.14214L113.878 8.79748L114.398 7.0742L116.004 6.32648L117.271 4.59736L117.674 4.48637L118.59 5.4035L119.741 4.65577L120.202 5.52033L121.008 5.34508L121.924 5.68974L123.285 5.10558L124.587 5.61964L126.484 5.44439L131.056 6.68865L131.768 7.66421L132.259 9.66204L133.187 10.4623L134.034 10.2404L138.027 11.4846L139.23 11.397L139.983 12.1973L141.268 12.3258L141.758 11.7942L142.336 11.841L143.049 12.3726L147.883 11.2159L149.752 11.4846L150.371 11.7942L150.639 13.0852L150.995 13.4825L151.036 14.68L151.527 14.9487L150.814 16.1462L148.508 18.5471L148.596 18.8568L150.814 20.0134L151.48 20.0543L152.192 19.4351L152.548 19.4818L153.92 20.767L155.479 20.4106L156.011 20.6793H157.698L158.405 21.2109L158.673 22.0989L158.498 23.9214L159.561 26.188L160.495 26.8072H162.848L163.426 27.2103L163.111 29.5177L163.467 30.3647L163.689 33.2914L163.157 34.6233L162.492 34.67L161.604 33.4725V32.6255L162.095 31.6032L161.779 30.984L160.407 29.8273L158.142 29.3425L156.898 28.4954L155.789 28.8518L155.742 29.3425L157.295 32.8942L158.521 33.4082L158.761 34.1968L159.549 34.9855L161.447 36.2531L162.947 36.4868L165.078 36.1713L166.345 36.4108L168.003 37.439L169.189 36.6445L173.212 36.2531L175.506 36.884L176.528 37.7544H177.398L178.98 35.7799L181.111 35.225L184.585 35.0673L186.086 34.5941L187.19 33.4082L188.854 32.5378L189.799 32.3042L191.061 32.5378L190.745 34.0391L190.033 35.149L190.272 37.9881L188.929 41.3879L188.772 43.9933L188.299 45.1032L186.244 46.3649L185.689 47.1594L183.797 47.2354L182.373 48.4971L179.056 48.9762L176.686 50.5534L173.136 51.342L172.82 52.5279L174.082 54.4264L174.479 56.5586L172.505 56.2431L170.135 56.874L167.525 57.0318L166.345 56.7981L165.709 57.9022L164.763 58.1417L164.051 58.7726L163.893 59.4852L161.522 59.8766L161.131 60.6652L161.207 61.6934L161.762 62.6456L164.29 64.5382V65.4086L162.392 66.9099L161.207 68.6507L160.892 69.673L160.004 68.493L158.416 68.4521L157.243 67.8504L155.468 67.4298L155.24 64.0592L155.012 63.5335L154.119 63.0778L154.078 61.6408L152.91 61.1092L152.303 61.2202L152.262 62.3184L151.544 62.961L151.392 64.0592L148.175 67.2429L147.305 70.9523H146.739L144.619 69.9651L143.638 68.7208L142.237 67.6577V66.8983L143.749 65.0465L146.324 63.5335L146.78 62.815L146.324 61.2202L145.489 60.2738L145.075 60.3498L143.072 61.0683L142.955 61.4889L143.749 62.5112V63.1538L143.37 63.5335L139.931 63.0369L137.922 63.0778L136.445 62.5871L135.499 63.3407L135.423 64.5149L135.126 64.8946L133.952 65.3853V65.876L133.117 66.7113L131.453 66.4484L128.65 67.0151L128.084 67.6986L127.594 69.5153L127.67 71.5949L128.236 72.6931L128.125 73.6804L127.366 75.0006L125.585 75.3044L124.038 76.9458L118.269 76.4376L117.516 77.197L117.498 77.5651L116.611 78.231L116.5 78.7684L115.899 79.1657L115.134 79.1365L114.1 78.4997L112.372 75.8535L111.73 75.6315L111.298 75.6607L111.064 76.128L107.362 77.197L105.961 77.1328L100.922 75.5614L100.555 75.7658L100.122 75.427L100.905 73.4584L100.654 72.1732L98.3884 69.7723L97.3199 69.7373L97.2907 68.4054L96.701 67.3948L94.7508 66.2849L92.8824 66.7055L91.522 64.9822L91.0666 64.7836L90.6112 64.9471L90.1207 65.8292L88.8128 66.6704L87.1138 67.6401L85.3797 68.0023L84.9126 68.604L84.1769 68.7384L82.9099 68.1075L82.7931 67.459L84.0952 67.2312L85.6132 65.6014L85.5899 64.4448L84.1594 62.9785L83.9609 62.2951L84.2586 61.2144L84.0601 59.4911L83.2135 58.9011L81.6896 59.0354L80.7963 59.5904L79.5993 61.0216L78.5542 60.823L76.1019 59.4443L73.8015 59.7773L71.7638 58.7433L70.8646 56.6404L71.5477 55.4487L72.5637 54.5082L73.0308 52.9718L72.9841 52.4169L71.7112 50.5884L71.4543 49.7122L72.0674 49.1981L71.7988 48.2635L70.7303 48.7016L69.7961 48.6315L69.4983 46.9199L67.9628 44.963L67.8285 43.561L67.3964 43.3624L66.795 43.7946L66.9643 45.1966H66.5965L65.7966 43.6953L64.8274 43.5259L64.4245 44.0926L64.8624 45.2959L64.4245 45.8976L63.7589 45.5939L63.5662 44.6417L63.8465 43.8764L65.2594 42.3576L65.166 39.8808L65.5222 39.6529L65.563 38.0523L64.7631 38.0231L64.0275 38.8234L63.0816 39.2615L62.7546 40.4007L62.1941 40.8914L60.5592 41.458L60.6585 42.1239H62.0248L62.6612 42.7256L62.5269 44.7702L61.8379 46.0729L62.1999 47.3113L62.0364 47.837L61.4526 47.9305L61.0264 49.2974L60.1564 49.0638L60.0922 50.3022L59.4557 51.1025L58.1771 51.9846L56.7407 51.453L55.5438 51.9554L54.1717 51.5523L52.9047 52.3877L52.9397 53.1529L53.2375 53.2464L53.0448 53.9941L53.2375 54.8879L53.9907 55.7232L53.8389 56.5936L52.8755 57.5575L54.2418 59.2925L52.8054 61.7985L52.204 62.0322L51.1356 61.5298L50.7736 59.4619L49.67 58.7258L48.0702 59.4268L47.6031 60.9982L46.9025 60.9281L46.3711 60.3965L46.2369 58.1417L45.437 57.7094L45.0341 57.6743L44.5028 58.1417L44.1466 57.7152L42.3775 57.54L40.7134 58.609L40.5091 59.678L39.4114 60.0811L38.7458 59.9935L37.578 58.4922L36.5095 57.8905L34.8397 57.7269L33.6427 58.7784L32.0371 58.5915L31.57 57.5925L30.2388 56.6929L29.0068 54.8587L28.5689 54.7535L27.1676 54.7886L26.7822 55.0748L26.391 56.2431L25.7021 57.0902L25.3517 56.6053L25.3693 54.4556L24.5985 53.8189V52.6622L25.1999 50.9331L25.0365 47.212L22.2689 42.7782L20.7975 42.4394L19.5305 42.8775L18.9759 42.7607L18.9642 43.0761L17.0316 43.3448L14.6961 45.9794L13.359 46.178L12.127 45.5763L11.5607 43.9699L9.09089 42.1064L8.4136 42.1415L7.44437 40.5409L6.64447 40.8096L4.8403 39.4076L3.91194 39.945L3.27553 40.8096L2.53984 40.8388L0.905004 40.3072L0 39.5244L0.0350309 37.3396L1.47136 36.0019L1.73994 34.267L4.27395 34.0975L5.54095 33.1629L7.11157 32.8299L8.07496 32.164L9.64557 29.8273L11.0469 29.3249L12.1445 28.1274L13.4116 28.1566L14.1064 26.8247L13.9137 25.598L14.1764 24.1843L14.8829 23.5709L16.652 22.8057L17.4636 21.8068L17.6855 21.0357L19.4838 19.7622L20.0385 18.3485L20.8851 17.4957L22.6893 16.894L24.1548 17.1276L24.4701 16.1988L24.8905 16.1287L26.7589 16.9641L27.7223 16.7304L28.5747 15.3167L28.6389 14.1776L27.9208 12.0922L28.7908 9.32323L32.4283 10.6902L33.6602 10.6551L34.828 10.2228L35.2659 9.32323L37.6306 7.635L38.7983 7.26698L39.2304 6.33232L41.7352 4.56815L43.3992 4.43379L44.9115 3.48161L45.3552 2.96755L45.653 1.14496L46.9433 0.519904L49.7576 0.689312L50.6217 0.864562L52.2916 1.89853L54.703 2.06793L56.081 1.1508L58.2646 1.09238L60.0454 0.286238L60.9096 0.344654L63.6129 1.43704L65.2769 3.10774L71.6587 4.54478L75.6232 6.61272L77.1763 7.0742L79.2432 8.62224L81.4269 8.68065L81.9465 9.31738L83.8441 8.62224L84.5331 7.58827L84.7608 6.61272L84.5331 4.54478L84.7608 3.4524L86.0278 1.43704L85.9694 0.519904L86.6 0L87.6334 0.116831Z" fill="#3C5F63" fill-opacity="0.7" stroke="#E5E4E9" stroke-width="0.771084" mask="url(#path-1-inside-1_249_3690)"/>
</svg>
