<svg width="26" height="25" viewBox="0 0 26 25" fill="none" xmlns="http://www.w3.org/2000/svg">
<path d="M2.29406 1.78125L21.9509 20.449C22.3238 20.8033 22.5334 21.2837 22.5334 21.7847C22.5334 22.2856 22.3238 22.7661 21.9509 23.1203V23.1203C21.5778 23.4744 21.0719 23.6733 20.5445 23.6733C20.017 23.6733 19.5112 23.4744 19.1381 23.1203L14.3363 18.4816C14.0221 18.1786 13.8458 17.7704 13.8455 17.3451V17.0649C13.8455 16.8501 13.8007 16.6375 13.7135 16.4394C13.6263 16.2412 13.4985 16.0615 13.3376 15.9107L12.7176 15.367C12.5072 15.1826 12.2512 15.0514 11.9734 14.9855C11.6956 14.9196 11.4047 14.9212 11.1277 14.99V14.99C10.6908 15.0983 10.2317 15.0962 9.79598 14.984C9.36022 14.8717 8.96295 14.6532 8.64359 14.3501L4.08565 10.021C1.38173 7.45308 0.386694 3.57542 2.29406 1.78125Z" stroke="#242424" stroke-width="1.49386" stroke-linejoin="round"/>
<path d="M20.5673 0.984375L16.4458 4.89851C16.1287 5.19964 15.8771 5.55716 15.7054 5.95064C15.5338 6.34412 15.4454 6.76586 15.4454 7.19176V7.9447C15.4455 8.05123 15.4234 8.15671 15.3804 8.25513C15.3375 8.35355 15.2746 8.44296 15.1952 8.51826L14.5918 9.09132" stroke="#242424" stroke-width="1.49386" stroke-linecap="round" stroke-linejoin="round"/>
<path d="M16.3008 10.7061L16.9042 10.1331C16.9835 10.0577 17.0776 9.99795 17.1813 9.95717C17.2849 9.9164 17.396 9.89542 17.5082 9.89544H18.301C18.7495 9.89544 19.1935 9.81154 19.6079 9.64853C20.0222 9.48552 20.3986 9.2466 20.7157 8.9454L24.8372 5.03125" stroke="#242424" stroke-width="1.49386" stroke-linecap="round" stroke-linejoin="round"/>
<path d="M22.7018 3.01562L18.4336 7.06911" stroke="#242424" stroke-width="1.49386" stroke-linecap="round" stroke-linejoin="round"/>
<path d="M9.89642 18.0111L4.57607 23.0921C4.17587 23.4721 3.63314 23.6855 3.06725 23.6855C2.50136 23.6855 1.95864 23.4721 1.55843 23.0921V23.0921C1.15835 22.7121 0.933594 22.1967 0.933594 21.6592C0.933594 21.1218 1.15835 20.6064 1.55843 20.2263L6.05502 15.9844" stroke="#242424" stroke-width="1.49386" stroke-linecap="round" stroke-linejoin="round"/>
</svg>
