<svg width="196" height="102" viewBox="0 0 196 102" fill="none" xmlns="http://www.w3.org/2000/svg">
<mask id="path-1-inside-1_249_3691" fill="white">
<path d="M109.36 101.657L108.28 101.4L107.147 100.494L106.651 99.7231L106.377 98.4555L106.92 96.96L106.196 96.9133L105.927 96.5511L103.393 96.9133L102.984 97.4098L100.9 98.1809L98.9557 99.4953L97.5077 99.2266L94.3372 97.9122L92.8892 98.0933L90.0341 97.6844L89.5378 97.9998L86.8228 98.3211L85.2814 96.9133V94.968L86.0054 94.1093L84.6508 93.6537L83.8801 93.0169L77.9946 94.1969L73.6506 96.2824L73.2419 96.1013L73.1485 95.1959L74.3746 94.4715L75.3672 93.4259L75.7759 92.6139L75.8226 91.1184L76.6342 89.3484L76.0503 88.3086L75.3263 87.9931L74.3279 88.2619L73.6039 88.0808L72.0625 87.2688L70.7955 82.5137L70.1649 81.5148L69.4409 81.287L71.7939 81.3804L72.1092 80.7437L73.2419 77.4841L72.4245 74.9955H72.0625L71.2976 76.4443L70.0248 77.3964L67.2689 77.9397L61.5353 77.2154L59.3166 78.705L58.2306 78.4363L57.4598 77.5775L56.8701 77.3964L52.7538 78.0741L49.2214 78.0273L47.8668 76.2164L47.4581 76.1288L46.5064 77.0343L45.689 76.8941L45.7357 75.8543L46.6874 73.0211L46.5064 72.5245L45.1051 71.7126L44.965 71.2102L45.3737 70.2638L46.413 69.5804L46.7808 68.9495L46.6407 67.5884L46.232 66.8173L45.6014 66.2273L44.5621 65.8651L43.6571 66.4142L43.155 67.1794L40.1247 67.5007L36.7732 66.9984L35.9558 67.3196L35.7748 66.4142L36.0492 65.5029L35.6872 63.8322L36.5047 62.1089L36.9542 61.8344L37.9935 62.1089L40.8487 62.0155L41.4793 61.6533L41.8004 61.0224L41.8413 59.7547L42.974 59.0304L43.2017 58.3937L42.9272 57.3071L42.6587 57.126L41.8004 57.7628L41.2574 57.5817L40.8954 56.7638L38.811 56.1738L38.087 55.3151L36.3237 54.7251L35.7339 54.1818L35.3252 54.0942L34.5545 54.5908L32.9722 54.3629L32.1548 53.8664L31.8395 53.142L29.2588 52.7799L28.5815 53.0486L25.9074 51.74L24.6929 51.4421H23.6069L22.842 52.3008L21.394 52.2599L19.4906 53.0252L17.7273 52.5754L17.6806 52.0789L18.8542 50.0401L19.6716 49.9934L20.0803 49.4501L20.2613 48.4103L21.1663 46.5527V45.7816L20.9386 45.4194L18.4513 44.4672V42.8841L16.1392 41.3887L16.2793 40.1678L15.2809 37.5858L15.0532 35.9969L15.2342 35.0038L14.8255 34.776L15.3685 31.6974L14.9656 31.2885L11.9762 30.9263L11.5207 31.1074L11.0245 32.7372L7.49202 33.1929L7.35774 32.4685L6.36515 32.2874L6.27173 31.014L5.23243 31.1542L4.41502 30.202L1.83429 29.3433L0.818359 28.245L2.96701 26.6853L3.83114 24.6933L4.36247 24.226H5.22659L6.02067 23.5659L8.07589 23.4958L8.14595 22.3041L7.81316 20.9722L8.14595 20.242L9.47136 20.4465L10.931 21.1066L12.4549 20.7736L14.7087 20.8437L15.1758 20.3121L17.8266 19.8448L18.4922 19.3132L19.6191 19.0503H21.5458L22.4742 19.4476L23.3325 19.1847L23.9339 18.7875L24.1324 17.257L25.5921 16.5968L26.6489 15.3993L30.4966 12.9458L31.6293 11.7483L33.089 11.9469L34.0173 11.4854L35.6055 11.2868L35.6756 9.95492L36.8024 10.025L37.398 10.5566L38.5891 10.2879L40.6501 10.6209L41.707 10.1594L43.1024 10.358L44.6263 9.69205L47.4814 10.0893L48.474 9.95492L51.1307 8.76323L52.8531 8.96185L53.2501 8.49452L54.1143 8.23164L60.2858 7.43718L61.8739 7.70006L62.5395 7.36708L63.4037 4.58063L65.2604 2.92161L66.8543 2.52438L67.3507 1.75913L67.8469 2.17388H70.7488L73.0551 2.53606L74.3513 1.80586L77.691 1.00556L78.888 1.26843L80.6221 0.90625L81.7256 1.20417L82.2919 1.80586L85.5967 1.94022L89.1291 2.57111L90.8281 2.27319L93.4673 3.83874L94.5533 3.73944L96.1531 4.40538L96.8187 4.37617L97.7996 5.60876L98.3893 5.74311L100.322 4.97202L102.436 5.77816L103.206 5.87747L104.707 5.50945L105.875 5.74311L107.264 5.20568L107.492 4.50469L109.868 4.60984L113.833 5.66133L114.802 5.15895L115.532 3.99063L115.964 3.89132L117.073 4.47548L120.711 3.37142L122.643 5.07717L123.671 5.22321L124.307 6.02351L125.341 5.95925L126.479 6.57846L127.449 7.9454L129.142 7.86362L129.644 7.55986L130.718 8.00966L131.851 7.9454L132.715 8.88006L134.414 8.52957L138.478 10.0951L142.238 10.2295L143.639 10.9305L145.975 9.86146L149.175 8.89759L149.811 8.96185L149.829 9.68037L148.964 11.3511L149.408 13.6994L150.296 15.5045L152.322 18.0981L153.863 18.84L154.564 19.9441L156.21 20.0726L156.578 20.3764L156.648 21.0774L159.363 23.782L160.029 25.0789L161.126 26.1829L162.294 26.7846L162.989 28.0873L167.8 28.3852L169.4 27.1176L177.498 29.2848L180.336 29.1855L181.434 29.4543L181.883 29.8865L182.35 32.1881L183.652 33.3915L184.201 34.4897L186.572 34.9921L187.255 36.2247L188.755 37.025L188.866 37.9889L188.487 38.7658L190.122 41.1317L190.355 42.0313L190.857 42.2357L191.575 41.4354L192.078 41.3653L193.409 41.7333L194.425 42.5979L194.892 46.1029L194.325 48.6381L195.657 50.5075L195.476 51.0799H194.22L193.111 50.6418L192.475 50.8463L191.996 51.4304L189.888 52.0263L184.82 51.4304L183.016 51.6641L180.412 51.5297L178.146 52.0964L176.944 52.8616L176.751 54.9997L175.968 55.7357L174.929 58.8143L174.176 59.5386L173.61 61.0399L172.64 61.9045L172.173 63.3065L170.176 65.3101L167.304 66.0111L163.433 65.7015L162.055 65.9761L161.302 65.2692L162.107 65.0122L161.868 64.6617L162.405 64.4222L162.265 64.0483L162.72 63.5284L161.996 62.5003L159.9 62.2725L158.166 63.1429L156.835 64.8078L155.901 64.9421L155.136 64.5741L154.529 64.8779L152.094 67.343L152 67.7811L151.393 68.0148L151.195 68.5113L150.43 69.0137L148.719 68.8502L147.061 69.2123L145.56 70.6844L142.892 71.6191L142.454 72.618L140.019 72.9159L138.752 73.6169L137.69 74.8203L137.719 75.1007L137.223 75.2234L136.551 76.0529L135.588 76.3917L134.788 77.3906H134.116L134.152 77.6243L133.165 78.1266L131.618 78.0916L131.483 78.3895L129.813 78.5589L128.984 79.0263L128.447 81.0299L127.647 81.3921L126.713 83.0278L124.611 83.2322L123.11 82.7941L122.579 83.0979L121.879 84.4999L120.711 85.3002L118.375 86.3341L116.075 86.632L115.707 87.5375L115.672 89.2374L116.472 90.1721L116.641 92.4737L115.771 93.0053L115.538 94.4423L113.774 94.6409L111.637 96.9484L110.767 97.4157L109.36 101.657Z"/>
</mask>
<path d="M109.36 101.657L108.28 101.4L107.147 100.494L106.651 99.7231L106.377 98.4555L106.92 96.96L106.196 96.9133L105.927 96.5511L103.393 96.9133L102.984 97.4098L100.9 98.1809L98.9557 99.4953L97.5077 99.2266L94.3372 97.9122L92.8892 98.0933L90.0341 97.6844L89.5378 97.9998L86.8228 98.3211L85.2814 96.9133V94.968L86.0054 94.1093L84.6508 93.6537L83.8801 93.0169L77.9946 94.1969L73.6506 96.2824L73.2419 96.1013L73.1485 95.1959L74.3746 94.4715L75.3672 93.4259L75.7759 92.6139L75.8226 91.1184L76.6342 89.3484L76.0503 88.3086L75.3263 87.9931L74.3279 88.2619L73.6039 88.0808L72.0625 87.2688L70.7955 82.5137L70.1649 81.5148L69.4409 81.287L71.7939 81.3804L72.1092 80.7437L73.2419 77.4841L72.4245 74.9955H72.0625L71.2976 76.4443L70.0248 77.3964L67.2689 77.9397L61.5353 77.2154L59.3166 78.705L58.2306 78.4363L57.4598 77.5775L56.8701 77.3964L52.7538 78.0741L49.2214 78.0273L47.8668 76.2164L47.4581 76.1288L46.5064 77.0343L45.689 76.8941L45.7357 75.8543L46.6874 73.0211L46.5064 72.5245L45.1051 71.7126L44.965 71.2102L45.3737 70.2638L46.413 69.5804L46.7808 68.9495L46.6407 67.5884L46.232 66.8173L45.6014 66.2273L44.5621 65.8651L43.6571 66.4142L43.155 67.1794L40.1247 67.5007L36.7732 66.9984L35.9558 67.3196L35.7748 66.4142L36.0492 65.5029L35.6872 63.8322L36.5047 62.1089L36.9542 61.8344L37.9935 62.1089L40.8487 62.0155L41.4793 61.6533L41.8004 61.0224L41.8413 59.7547L42.974 59.0304L43.2017 58.3937L42.9272 57.3071L42.6587 57.126L41.8004 57.7628L41.2574 57.5817L40.8954 56.7638L38.811 56.1738L38.087 55.3151L36.3237 54.7251L35.7339 54.1818L35.3252 54.0942L34.5545 54.5908L32.9722 54.3629L32.1548 53.8664L31.8395 53.142L29.2588 52.7799L28.5815 53.0486L25.9074 51.74L24.6929 51.4421H23.6069L22.842 52.3008L21.394 52.2599L19.4906 53.0252L17.7273 52.5754L17.6806 52.0789L18.8542 50.0401L19.6716 49.9934L20.0803 49.4501L20.2613 48.4103L21.1663 46.5527V45.7816L20.9386 45.4194L18.4513 44.4672V42.8841L16.1392 41.3887L16.2793 40.1678L15.2809 37.5858L15.0532 35.9969L15.2342 35.0038L14.8255 34.776L15.3685 31.6974L14.9656 31.2885L11.9762 30.9263L11.5207 31.1074L11.0245 32.7372L7.49202 33.1929L7.35774 32.4685L6.36515 32.2874L6.27173 31.014L5.23243 31.1542L4.41502 30.202L1.83429 29.3433L0.818359 28.245L2.96701 26.6853L3.83114 24.6933L4.36247 24.226H5.22659L6.02067 23.5659L8.07589 23.4958L8.14595 22.3041L7.81316 20.9722L8.14595 20.242L9.47136 20.4465L10.931 21.1066L12.4549 20.7736L14.7087 20.8437L15.1758 20.3121L17.8266 19.8448L18.4922 19.3132L19.6191 19.0503H21.5458L22.4742 19.4476L23.3325 19.1847L23.9339 18.7875L24.1324 17.257L25.5921 16.5968L26.6489 15.3993L30.4966 12.9458L31.6293 11.7483L33.089 11.9469L34.0173 11.4854L35.6055 11.2868L35.6756 9.95492L36.8024 10.025L37.398 10.5566L38.5891 10.2879L40.6501 10.6209L41.707 10.1594L43.1024 10.358L44.6263 9.69205L47.4814 10.0893L48.474 9.95492L51.1307 8.76323L52.8531 8.96185L53.2501 8.49452L54.1143 8.23164L60.2858 7.43718L61.8739 7.70006L62.5395 7.36708L63.4037 4.58063L65.2604 2.92161L66.8543 2.52438L67.3507 1.75913L67.8469 2.17388H70.7488L73.0551 2.53606L74.3513 1.80586L77.691 1.00556L78.888 1.26843L80.6221 0.90625L81.7256 1.20417L82.2919 1.80586L85.5967 1.94022L89.1291 2.57111L90.8281 2.27319L93.4673 3.83874L94.5533 3.73944L96.1531 4.40538L96.8187 4.37617L97.7996 5.60876L98.3893 5.74311L100.322 4.97202L102.436 5.77816L103.206 5.87747L104.707 5.50945L105.875 5.74311L107.264 5.20568L107.492 4.50469L109.868 4.60984L113.833 5.66133L114.802 5.15895L115.532 3.99063L115.964 3.89132L117.073 4.47548L120.711 3.37142L122.643 5.07717L123.671 5.22321L124.307 6.02351L125.341 5.95925L126.479 6.57846L127.449 7.9454L129.142 7.86362L129.644 7.55986L130.718 8.00966L131.851 7.9454L132.715 8.88006L134.414 8.52957L138.478 10.0951L142.238 10.2295L143.639 10.9305L145.975 9.86146L149.175 8.89759L149.811 8.96185L149.829 9.68037L148.964 11.3511L149.408 13.6994L150.296 15.5045L152.322 18.0981L153.863 18.84L154.564 19.9441L156.21 20.0726L156.578 20.3764L156.648 21.0774L159.363 23.782L160.029 25.0789L161.126 26.1829L162.294 26.7846L162.989 28.0873L167.8 28.3852L169.4 27.1176L177.498 29.2848L180.336 29.1855L181.434 29.4543L181.883 29.8865L182.35 32.1881L183.652 33.3915L184.201 34.4897L186.572 34.9921L187.255 36.2247L188.755 37.025L188.866 37.9889L188.487 38.7658L190.122 41.1317L190.355 42.0313L190.857 42.2357L191.575 41.4354L192.078 41.3653L193.409 41.7333L194.425 42.5979L194.892 46.1029L194.325 48.6381L195.657 50.5075L195.476 51.0799H194.22L193.111 50.6418L192.475 50.8463L191.996 51.4304L189.888 52.0263L184.82 51.4304L183.016 51.6641L180.412 51.5297L178.146 52.0964L176.944 52.8616L176.751 54.9997L175.968 55.7357L174.929 58.8143L174.176 59.5386L173.61 61.0399L172.64 61.9045L172.173 63.3065L170.176 65.3101L167.304 66.0111L163.433 65.7015L162.055 65.9761L161.302 65.2692L162.107 65.0122L161.868 64.6617L162.405 64.4222L162.265 64.0483L162.72 63.5284L161.996 62.5003L159.9 62.2725L158.166 63.1429L156.835 64.8078L155.901 64.9421L155.136 64.5741L154.529 64.8779L152.094 67.343L152 67.7811L151.393 68.0148L151.195 68.5113L150.43 69.0137L148.719 68.8502L147.061 69.2123L145.56 70.6844L142.892 71.6191L142.454 72.618L140.019 72.9159L138.752 73.6169L137.69 74.8203L137.719 75.1007L137.223 75.2234L136.551 76.0529L135.588 76.3917L134.788 77.3906H134.116L134.152 77.6243L133.165 78.1266L131.618 78.0916L131.483 78.3895L129.813 78.5589L128.984 79.0263L128.447 81.0299L127.647 81.3921L126.713 83.0278L124.611 83.2322L123.11 82.7941L122.579 83.0979L121.879 84.4999L120.711 85.3002L118.375 86.3341L116.075 86.632L115.707 87.5375L115.672 89.2374L116.472 90.1721L116.641 92.4737L115.771 93.0053L115.538 94.4423L113.774 94.6409L111.637 96.9484L110.767 97.4157L109.36 101.657Z" fill="#3C5F63" fill-opacity="0.7" stroke="#E5E4E9" stroke-width="0.771084" mask="url(#path-1-inside-1_249_3691)"/>
</svg>
