<svg width="26" height="27" viewBox="0 0 26 27" fill="none" xmlns="http://www.w3.org/2000/svg">
<g clip-path="url(#clip0_249_6781)">
<path d="M22.3841 0.953125H3.42491C2.1868 0.953125 1.17969 1.95827 1.17969 3.19396V24.6059C1.17969 25.8416 2.1868 26.8467 3.42491 26.8467H22.3841C23.6222 26.8467 24.6293 25.8416 24.6293 24.6059V3.19396C24.6293 1.95827 23.6222 0.953125 22.3841 0.953125V0.953125ZM2.6765 3.19396C2.6765 2.78207 3.01221 2.44702 3.42491 2.44702H22.3841C22.7968 2.44702 23.1325 2.78207 23.1325 3.19396V6.18155H2.6765V3.19396ZM23.1325 24.6059C23.1325 25.0178 22.7968 25.3528 22.3841 25.3528H3.42491C3.01221 25.3528 2.6765 25.0178 2.6765 24.6059V7.67544H23.1325V24.6059Z" fill="#242424"/>
<path d="M17.8933 3.5625H16.3968C15.9835 3.5625 15.6484 3.89696 15.6484 4.30945C15.6484 4.72194 15.9835 5.05639 16.3968 5.05639H17.8933C18.3066 5.05639 18.6417 4.72194 18.6417 4.30945C18.6417 3.89696 18.3066 3.5625 17.8933 3.5625Z" fill="#242424"/>
<path d="M21.8855 3.5625H20.389C19.9757 3.5625 19.6406 3.89696 19.6406 4.30945C19.6406 4.72194 19.9757 5.05639 20.389 5.05639H21.8855C22.2987 5.05639 22.6337 4.72194 22.6337 4.30945C22.6337 3.89696 22.2987 3.5625 21.8855 3.5625Z" fill="#242424"/>
<path d="M5.66992 16.5172C5.66992 20.4985 8.91513 23.7376 12.9042 23.7376C16.8935 23.7376 20.1387 20.4985 20.1387 16.5172C20.1387 16.3234 20.1308 16.1314 20.1157 15.9416C20.1157 15.9406 20.1155 15.9396 20.1155 15.9388C19.8192 12.227 16.6983 9.29688 12.9042 9.29688C9.1103 9.29688 5.9894 12.227 5.69308 15.9388C5.69288 15.9396 5.69288 15.9406 5.69288 15.9416C5.67784 16.1314 5.66992 16.3234 5.66992 16.5172ZM12.9042 22.2437C9.869 22.2437 7.37715 19.8792 7.1796 16.8991C7.34112 16.9655 7.48423 17.0532 7.64753 17.1533C8.08894 17.4246 8.63861 17.7622 9.66117 17.7622C10.6837 17.7622 11.2332 17.4248 11.6748 17.1535C12.0408 16.9287 12.305 16.7663 12.904 16.7663C13.503 16.7663 13.7674 16.9287 14.1334 17.1535C14.575 17.4246 15.1247 17.7622 16.1472 17.7622C17.1698 17.7622 17.7195 17.4248 18.1611 17.1535C18.3244 17.0532 18.4675 16.9655 18.6288 16.8991C18.4314 19.8792 15.9396 22.2437 12.9042 22.2437ZM12.9042 10.7908C15.6734 10.7908 17.9906 12.7588 18.5257 15.3671C18.0199 15.4868 17.6733 15.699 17.3766 15.8811C17.0106 16.1059 16.7462 16.2683 16.1472 16.2683C15.5483 16.2683 15.2838 16.1059 14.9178 15.8811C14.4762 15.6099 13.9268 15.2722 12.904 15.2722C11.8814 15.2722 11.332 15.6099 10.8904 15.8811C10.5244 16.1059 10.2599 16.2683 9.66117 16.2683C9.0622 16.2683 8.79776 16.1059 8.43177 15.8811C8.13506 15.6988 7.78866 15.4866 7.28293 15.3671C7.81796 12.7588 10.1352 10.7908 12.9042 10.7908Z" fill="#242424"/>
</g>
<defs>
<clipPath id="clip0_249_6781">
<rect width="25.8936" height="25.8936" fill="white" transform="translate(-0.0625 0.953125)"/>
</clipPath>
</defs>
</svg>
