<svg width="39" height="39" viewBox="0 0 39 39" fill="none" xmlns="http://www.w3.org/2000/svg">
<path d="M19.5 0C8.7477 0 0 8.7477 0 19.5C0 30.2523 8.7477 39 19.5 39C30.2523 39 39 30.2523 39 19.5C39 8.7477 30.2523 0 19.5 0ZM28.6416 21.2765C26.7403 23.5931 19.502 29.9247 19.502 29.9247C19.502 29.9247 12.2031 23.5931 10.3155 21.2628C8.09055 18.5114 8.1315 14.9429 10.4111 12.7784C11.6006 11.6474 13.1781 11.0273 14.8551 11.0273C16.5321 11.0273 18.1077 11.6493 19.2972 12.7784L19.4844 12.9558L19.6599 12.7881C20.8606 11.6555 22.4515 11.029 24.102 11.0389C25.779 11.0389 27.3546 11.6571 28.5461 12.7881C30.8861 15.0072 30.9212 18.4958 28.6416 21.2765Z" fill="white"/>
</svg>
