<svg width="190" height="121" viewBox="0 0 190 121" fill="none" xmlns="http://www.w3.org/2000/svg">
<mask id="path-1-inside-1_249_3689" fill="white">
<path d="M75.8131 0.730203L76.1459 1.33189L76.8758 1.39615L77.7341 1.92774L80.0579 0.934659L80.7585 0.105149L81.7744 1.20337L84.3552 2.06209L85.1726 3.01428L86.2119 2.87408L86.3053 4.14755L87.2979 4.32864L87.4322 5.053L90.9646 4.59736L91.4609 2.96755L91.9163 2.78646L94.9057 3.14863L95.3086 3.55755L94.7656 6.63608L95.1743 6.86391L94.9933 7.85698L95.221 9.4459L96.2195 12.0279L96.0793 13.2488L98.3915 14.7443V16.3273L100.879 17.2795L101.106 17.6417V18.4128L100.201 20.2704L100.02 21.3102L99.6118 21.8535L98.7943 21.9002L97.6208 23.939L97.6674 24.4355L99.4308 24.8853L101.334 24.1201L102.782 24.1609L103.547 23.3022H104.633L105.848 23.6002L108.522 24.9087L109.199 24.64L111.78 25.0021L112.095 25.7265L112.912 26.223L114.495 26.4509L115.265 25.9543L115.674 26.042L116.264 26.5852L118.027 27.1752L118.751 28.0339L120.836 28.6239L121.198 29.4418L121.741 29.6229L122.599 28.9861L122.867 29.1672L123.142 30.2538L122.914 30.8905L121.781 31.6149L121.741 32.8825L121.419 33.5134L120.789 33.8756L117.934 33.969L116.894 33.6945L116.445 33.969L115.627 35.6923L115.989 37.363L115.715 38.2743L115.896 39.1798L116.713 38.8585L120.065 39.3608L123.095 39.0396L123.597 38.2743L124.502 37.7252L125.542 38.0874L126.172 38.6774L126.581 39.4485L126.721 40.8096L126.353 41.4405L125.314 42.1239L124.905 43.0703L125.045 43.5727L126.447 44.3846L126.628 44.8812L125.676 47.7144L125.629 48.7542L126.447 48.8944L127.398 47.9889L127.807 48.0765L129.162 49.8875L132.694 49.9342L136.81 49.2566L137.4 49.4376L138.171 50.2964L139.257 50.5651L141.475 49.0755L147.209 49.7998L149.965 49.2566L151.238 48.3044L152.003 46.8556H152.365L153.182 49.3442L152.049 52.6038L151.734 53.2405L149.381 53.1471L150.105 53.3749L150.736 54.3738L152.003 59.1289L153.544 59.9409L154.268 60.122L155.266 59.8533L155.99 60.1687L156.574 61.2085L155.763 62.9785L155.716 64.474L155.307 65.286L154.315 66.3316L153.089 67.056L153.182 67.9614L153.591 68.1425L157.935 66.0571L163.82 64.8771L164.591 65.5138L165.946 65.9694L165.221 66.8282V68.7734L166.763 70.1813L169.478 69.86L169.974 69.5445L172.829 69.9534L174.277 69.7723L177.448 71.0867L178.896 71.3554L180.84 70.041L182.925 69.27L183.333 68.7734L185.867 68.4112L186.136 68.7734L186.86 68.8202L186.317 70.3156L186.591 71.5832L187.088 72.3543L188.22 73.2598L189.3 73.5168L188.81 75.5146L188.279 75.6724L186.901 77.1503L184.075 77.5183L182.206 79.2825H181.64L180.169 77.9856L178.335 77.752L176.753 77.9506L175.936 77.752L174.966 77.0159H174.201L173.997 77.5826L172.666 78.0149L172.724 78.3128L170.698 79.0196L169.892 80.1178L168.316 79.8433L167.329 80.3165L166.763 80.9883L164.357 80.8539L161.625 81.6542L160.691 81.2511L158.104 81.5549L157.304 81.3212L157.38 80.5501L155.231 80.3165L154.764 79.6856L153.135 79.4169L149.533 81.2511L147.431 80.0185L146.263 80.0536L144.792 80.7838L144.091 80.5852L143.426 80.1178L142.392 79.9543L141.96 78.6867L140.459 77.9506L138.223 78.0149L137.89 77.6468L137.091 77.6819L135.421 79.4519L134.346 80.112L133.336 79.9426L133.488 80.3515L132.122 80.1879L131.55 81.0525L131.45 82.7407L130.049 82.7699L129.786 83.5702L128.151 84.1427L127.381 86.678L127.585 89.7448L126.517 90.3115L126.692 91.2929L126.085 91.9822L125.88 92.9168L123.212 94.8212L123.282 96.3868L124.315 97.8881L123.048 100.692L123.235 101.796L122.61 102.795L121.612 103.163L120.946 104.565L120.012 104.997L119.142 106.3L118.243 108.467L118.377 110.337L117.846 111.236L116.743 112.072L116.678 112.673L114.506 113.941L114.138 115.01L112.539 115.711H110.77L109.841 117.58L109.07 116.943L108.971 114.84L107.839 114.075L106.069 113.771L105.234 113.871L104.055 115.208L102.251 116.476L98.4207 115.74L96.7157 117.078L96.2837 116.879L95.583 115.775L94.4795 115.506L93.9482 115.845L93.2826 117.446L92.5819 118.281L92.6462 119.782L92.1557 120.232L91.2449 119.549L89.0437 119.578L88.6466 118.947L88.4131 119.181L87.946 118.678L86.2761 119.847L84.6121 119.911L83.3392 120.863L82.8721 120.746L82.3758 117.744L81.7044 116.575V116.009L82.2707 114.408L82.1073 113.771L83.4735 112.206L83.9056 110.67L82.1189 109.034L81.0738 108.596L80.56 107.667L80.0579 105.698L79.8593 101.825L79.4273 100.791L78.0902 100.125L76.3911 100.861L73.9564 102.596L71.2881 105.698L70.0912 106.341L68.7833 106.563L67.8491 107.235L66.3193 108.701L66.0858 109.7L64.9356 109.951L64.0714 111.055L62.6701 111.955L60.3346 111.353H59.1319L57.065 112.124L55.798 111.99L54.6944 111.189L53.264 111.487L52.2947 111.254L49.3754 108.584L47.7405 107.848L48.4061 108.152L46.9698 107.784L46.3275 108.345L44.9321 107.749H44.2898L43.4958 108.315L39.975 108.012L39.3327 107.106L38.1942 107.03L37.7446 106.691L37.0206 106.878L36.3433 106.16L35.847 106.423L35.5493 106.271L35.2807 105.062L36.0747 103.169L35.7711 102.561L35.1289 101.954L34.3757 101.878L33.3539 101.124L31.8008 100.745L30.6681 100.932L29.3777 99.3835L28.1691 99.3426L27.2583 98.2444L25.9329 97.7946L24.2338 94.3831L23.2879 94.5759L22.8325 94.3071L22.1143 92.2626L21.8516 91.9997H20.9816L20.1467 91.3922L19.919 89.5754L18.7104 88.1384L17.6477 87.7587L16.4741 86.3976L15.3414 86.2457L14.6583 84.1602L12.8833 83.2898L12.7082 82.9218L13.4964 81.1051L14.8393 79.5278L16.1063 78.6574V77.787L13.5781 75.8944L13.0234 74.9422L12.9476 73.914L13.3387 73.1254L15.7093 72.734L15.8669 72.0214L16.5792 71.3905L17.5251 71.1509L18.1557 70.0469L19.341 70.2806L21.9509 70.1228L24.3155 69.4919L26.2949 69.8074L25.8978 67.6752L24.6308 65.7767L24.952 64.5908L28.5019 63.8022L30.8724 62.225L34.1888 61.7459L35.6135 60.4842L37.5052 60.4082L38.0599 59.6137L40.1151 58.352L40.5881 57.2421L40.7457 54.6367L42.0886 51.2369L41.8493 48.3978L42.5616 47.2879L42.8769 45.7866L41.6157 45.553L40.664 45.7866L39.0058 46.657L37.9023 47.8429L36.4017 48.3161L32.9277 48.4738L30.7965 49.0287L29.2142 51.0032H28.3443L27.3167 50.1328L25.0279 49.5019L20.9991 49.8933L19.8139 50.6878L18.1557 49.6596L16.8945 49.4201L14.7634 49.7356L13.2628 49.5019L11.3653 48.2343L10.577 47.4456L10.3376 46.657L9.11151 46.143L7.55841 42.5913L7.60511 42.1006L8.71448 41.7442L9.95812 42.5913L12.2177 43.0761L13.5956 44.2328L13.9051 44.852L13.4205 45.8743V46.7213L14.308 47.9188L14.9736 47.8721L15.5049 46.5402L15.283 43.6135L14.9269 42.7665L15.2363 40.4591L14.6641 40.056H12.3111L11.3769 39.4368L10.3084 37.1702L10.4894 35.3477L10.2209 34.4597L9.51439 33.9281H7.82698L7.28983 33.6594L5.73673 34.0158L4.35878 32.7306L4.00845 32.6839L3.29613 33.3031L2.63052 33.2622L0.767968 32.4152L0.324219 31.7959L2.63052 29.395L3.24358 28.1449L4.96601 27.7477L5.42728 28.1449H8.41086L9.47351 27.6776L10.1391 27.812L11.1317 26.8189L11.7973 27.8762L13.3913 29.3366L13.7883 30.2654L14.6466 30.4641L16.9062 30.0668L17.1689 30.3998L16.1764 33.2564L17.0347 34.2494L17.7645 33.7178L18.8271 30.5342L19.4928 29.9383L20.2868 29.6053L21.6823 30.0026L22.8092 29.804L23.3638 26.5852L24.9578 25.7849L25.3549 24.7918L24.8235 22.7998L25.1563 22.1397L25.9504 21.4738L26.8145 21.2752L27.3458 20.4106L27.8772 20.212L27.6787 19.6162L25.7519 18.7516L25.0921 18.1558L26.219 12.91L28.0115 13.243L29.5996 13.1086L31.1936 12.5829L32.589 12.91L34.4457 12.4485L35.8354 12.5128L38.7314 11.4846L40.3896 11.7475L41.9777 10.4916L43.3731 8.69817L44.3657 8.23085L46.5553 7.96797L47.6179 8.23085L48.2135 7.76936L47.9507 6.23885L47.1567 5.18152L46.6895 3.91973L45.3642 2.39506L45.1656 1.46041L49.6089 1.06317L50.2745 0.730203L53.2581 1.19753L54.5835 0.467332L55.2491 0.665945L55.9089 1.66486L57.5671 1.59476L59.3596 0.332972L59.8909 0.934659L60.685 1.19753L62.5417 0.730203L65.461 1.79338L67.055 1.13328L68.9117 1.06317L69.5774 0.204456L71.1012 1.26179L72.0296 0.934659L73.1565 1.13328L74.2834 0.800304L75.0132 0.467332L75.2818 0L75.8773 0.134359L75.8131 0.730203Z"/>
</mask>
<path d="M75.8131 0.730203L76.1459 1.33189L76.8758 1.39615L77.7341 1.92774L80.0579 0.934659L80.7585 0.105149L81.7744 1.20337L84.3552 2.06209L85.1726 3.01428L86.2119 2.87408L86.3053 4.14755L87.2979 4.32864L87.4322 5.053L90.9646 4.59736L91.4609 2.96755L91.9163 2.78646L94.9057 3.14863L95.3086 3.55755L94.7656 6.63608L95.1743 6.86391L94.9933 7.85698L95.221 9.4459L96.2195 12.0279L96.0793 13.2488L98.3915 14.7443V16.3273L100.879 17.2795L101.106 17.6417V18.4128L100.201 20.2704L100.02 21.3102L99.6118 21.8535L98.7943 21.9002L97.6208 23.939L97.6674 24.4355L99.4308 24.8853L101.334 24.1201L102.782 24.1609L103.547 23.3022H104.633L105.848 23.6002L108.522 24.9087L109.199 24.64L111.78 25.0021L112.095 25.7265L112.912 26.223L114.495 26.4509L115.265 25.9543L115.674 26.042L116.264 26.5852L118.027 27.1752L118.751 28.0339L120.836 28.6239L121.198 29.4418L121.741 29.6229L122.599 28.9861L122.867 29.1672L123.142 30.2538L122.914 30.8905L121.781 31.6149L121.741 32.8825L121.419 33.5134L120.789 33.8756L117.934 33.969L116.894 33.6945L116.445 33.969L115.627 35.6923L115.989 37.363L115.715 38.2743L115.896 39.1798L116.713 38.8585L120.065 39.3608L123.095 39.0396L123.597 38.2743L124.502 37.7252L125.542 38.0874L126.172 38.6774L126.581 39.4485L126.721 40.8096L126.353 41.4405L125.314 42.1239L124.905 43.0703L125.045 43.5727L126.447 44.3846L126.628 44.8812L125.676 47.7144L125.629 48.7542L126.447 48.8944L127.398 47.9889L127.807 48.0765L129.162 49.8875L132.694 49.9342L136.81 49.2566L137.4 49.4376L138.171 50.2964L139.257 50.5651L141.475 49.0755L147.209 49.7998L149.965 49.2566L151.238 48.3044L152.003 46.8556H152.365L153.182 49.3442L152.049 52.6038L151.734 53.2405L149.381 53.1471L150.105 53.3749L150.736 54.3738L152.003 59.1289L153.544 59.9409L154.268 60.122L155.266 59.8533L155.99 60.1687L156.574 61.2085L155.763 62.9785L155.716 64.474L155.307 65.286L154.315 66.3316L153.089 67.056L153.182 67.9614L153.591 68.1425L157.935 66.0571L163.82 64.8771L164.591 65.5138L165.946 65.9694L165.221 66.8282V68.7734L166.763 70.1813L169.478 69.86L169.974 69.5445L172.829 69.9534L174.277 69.7723L177.448 71.0867L178.896 71.3554L180.84 70.041L182.925 69.27L183.333 68.7734L185.867 68.4112L186.136 68.7734L186.86 68.8202L186.317 70.3156L186.591 71.5832L187.088 72.3543L188.22 73.2598L189.3 73.5168L188.81 75.5146L188.279 75.6724L186.901 77.1503L184.075 77.5183L182.206 79.2825H181.64L180.169 77.9856L178.335 77.752L176.753 77.9506L175.936 77.752L174.966 77.0159H174.201L173.997 77.5826L172.666 78.0149L172.724 78.3128L170.698 79.0196L169.892 80.1178L168.316 79.8433L167.329 80.3165L166.763 80.9883L164.357 80.8539L161.625 81.6542L160.691 81.2511L158.104 81.5549L157.304 81.3212L157.38 80.5501L155.231 80.3165L154.764 79.6856L153.135 79.4169L149.533 81.2511L147.431 80.0185L146.263 80.0536L144.792 80.7838L144.091 80.5852L143.426 80.1178L142.392 79.9543L141.96 78.6867L140.459 77.9506L138.223 78.0149L137.89 77.6468L137.091 77.6819L135.421 79.4519L134.346 80.112L133.336 79.9426L133.488 80.3515L132.122 80.1879L131.55 81.0525L131.45 82.7407L130.049 82.7699L129.786 83.5702L128.151 84.1427L127.381 86.678L127.585 89.7448L126.517 90.3115L126.692 91.2929L126.085 91.9822L125.88 92.9168L123.212 94.8212L123.282 96.3868L124.315 97.8881L123.048 100.692L123.235 101.796L122.61 102.795L121.612 103.163L120.946 104.565L120.012 104.997L119.142 106.3L118.243 108.467L118.377 110.337L117.846 111.236L116.743 112.072L116.678 112.673L114.506 113.941L114.138 115.01L112.539 115.711H110.77L109.841 117.58L109.07 116.943L108.971 114.84L107.839 114.075L106.069 113.771L105.234 113.871L104.055 115.208L102.251 116.476L98.4207 115.74L96.7157 117.078L96.2837 116.879L95.583 115.775L94.4795 115.506L93.9482 115.845L93.2826 117.446L92.5819 118.281L92.6462 119.782L92.1557 120.232L91.2449 119.549L89.0437 119.578L88.6466 118.947L88.4131 119.181L87.946 118.678L86.2761 119.847L84.6121 119.911L83.3392 120.863L82.8721 120.746L82.3758 117.744L81.7044 116.575V116.009L82.2707 114.408L82.1073 113.771L83.4735 112.206L83.9056 110.67L82.1189 109.034L81.0738 108.596L80.56 107.667L80.0579 105.698L79.8593 101.825L79.4273 100.791L78.0902 100.125L76.3911 100.861L73.9564 102.596L71.2881 105.698L70.0912 106.341L68.7833 106.563L67.8491 107.235L66.3193 108.701L66.0858 109.7L64.9356 109.951L64.0714 111.055L62.6701 111.955L60.3346 111.353H59.1319L57.065 112.124L55.798 111.99L54.6944 111.189L53.264 111.487L52.2947 111.254L49.3754 108.584L47.7405 107.848L48.4061 108.152L46.9698 107.784L46.3275 108.345L44.9321 107.749H44.2898L43.4958 108.315L39.975 108.012L39.3327 107.106L38.1942 107.03L37.7446 106.691L37.0206 106.878L36.3433 106.16L35.847 106.423L35.5493 106.271L35.2807 105.062L36.0747 103.169L35.7711 102.561L35.1289 101.954L34.3757 101.878L33.3539 101.124L31.8008 100.745L30.6681 100.932L29.3777 99.3835L28.1691 99.3426L27.2583 98.2444L25.9329 97.7946L24.2338 94.3831L23.2879 94.5759L22.8325 94.3071L22.1143 92.2626L21.8516 91.9997H20.9816L20.1467 91.3922L19.919 89.5754L18.7104 88.1384L17.6477 87.7587L16.4741 86.3976L15.3414 86.2457L14.6583 84.1602L12.8833 83.2898L12.7082 82.9218L13.4964 81.1051L14.8393 79.5278L16.1063 78.6574V77.787L13.5781 75.8944L13.0234 74.9422L12.9476 73.914L13.3387 73.1254L15.7093 72.734L15.8669 72.0214L16.5792 71.3905L17.5251 71.1509L18.1557 70.0469L19.341 70.2806L21.9509 70.1228L24.3155 69.4919L26.2949 69.8074L25.8978 67.6752L24.6308 65.7767L24.952 64.5908L28.5019 63.8022L30.8724 62.225L34.1888 61.7459L35.6135 60.4842L37.5052 60.4082L38.0599 59.6137L40.1151 58.352L40.5881 57.2421L40.7457 54.6367L42.0886 51.2369L41.8493 48.3978L42.5616 47.2879L42.8769 45.7866L41.6157 45.553L40.664 45.7866L39.0058 46.657L37.9023 47.8429L36.4017 48.3161L32.9277 48.4738L30.7965 49.0287L29.2142 51.0032H28.3443L27.3167 50.1328L25.0279 49.5019L20.9991 49.8933L19.8139 50.6878L18.1557 49.6596L16.8945 49.4201L14.7634 49.7356L13.2628 49.5019L11.3653 48.2343L10.577 47.4456L10.3376 46.657L9.11151 46.143L7.55841 42.5913L7.60511 42.1006L8.71448 41.7442L9.95812 42.5913L12.2177 43.0761L13.5956 44.2328L13.9051 44.852L13.4205 45.8743V46.7213L14.308 47.9188L14.9736 47.8721L15.5049 46.5402L15.283 43.6135L14.9269 42.7665L15.2363 40.4591L14.6641 40.056H12.3111L11.3769 39.4368L10.3084 37.1702L10.4894 35.3477L10.2209 34.4597L9.51439 33.9281H7.82698L7.28983 33.6594L5.73673 34.0158L4.35878 32.7306L4.00845 32.6839L3.29613 33.3031L2.63052 33.2622L0.767968 32.4152L0.324219 31.7959L2.63052 29.395L3.24358 28.1449L4.96601 27.7477L5.42728 28.1449H8.41086L9.47351 27.6776L10.1391 27.812L11.1317 26.8189L11.7973 27.8762L13.3913 29.3366L13.7883 30.2654L14.6466 30.4641L16.9062 30.0668L17.1689 30.3998L16.1764 33.2564L17.0347 34.2494L17.7645 33.7178L18.8271 30.5342L19.4928 29.9383L20.2868 29.6053L21.6823 30.0026L22.8092 29.804L23.3638 26.5852L24.9578 25.7849L25.3549 24.7918L24.8235 22.7998L25.1563 22.1397L25.9504 21.4738L26.8145 21.2752L27.3458 20.4106L27.8772 20.212L27.6787 19.6162L25.7519 18.7516L25.0921 18.1558L26.219 12.91L28.0115 13.243L29.5996 13.1086L31.1936 12.5829L32.589 12.91L34.4457 12.4485L35.8354 12.5128L38.7314 11.4846L40.3896 11.7475L41.9777 10.4916L43.3731 8.69817L44.3657 8.23085L46.5553 7.96797L47.6179 8.23085L48.2135 7.76936L47.9507 6.23885L47.1567 5.18152L46.6895 3.91973L45.3642 2.39506L45.1656 1.46041L49.6089 1.06317L50.2745 0.730203L53.2581 1.19753L54.5835 0.467332L55.2491 0.665945L55.9089 1.66486L57.5671 1.59476L59.3596 0.332972L59.8909 0.934659L60.685 1.19753L62.5417 0.730203L65.461 1.79338L67.055 1.13328L68.9117 1.06317L69.5774 0.204456L71.1012 1.26179L72.0296 0.934659L73.1565 1.13328L74.2834 0.800304L75.0132 0.467332L75.2818 0L75.8773 0.134359L75.8131 0.730203Z" fill="#3C5F63" fill-opacity="0.7" stroke="#E5E4E9" stroke-width="0.771084" mask="url(#path-1-inside-1_249_3689)"/>
</svg>
