<svg width="143" height="108" viewBox="0 0 143 108" fill="none" xmlns="http://www.w3.org/2000/svg">
<mask id="path-1-inside-1_249_3701" fill="white">
<path d="M138.664 34.8219L138.641 35.149L138.337 35.1607V37.3338L137.268 38.397L137.339 38.8001L139.983 41.1659L140.836 42.6322L142.167 43.5551L142.056 44.3554L141.49 44.408L140.421 45.109L139.674 45.0039L138.407 43.8589L137.957 43.7713L133.841 43.8589L133.479 44.0867L133.602 45.6523L132.066 47.9071L131.401 48.1174L130.963 47.5683L129.83 47.4106L128.732 47.6443L126.461 51.1785L124.458 52.3293L123.127 54.2687L120.622 56.1672L119.811 57.1486L118.561 57.6685H117.966L116.798 56.8039L115.992 57.1778L114.859 55.8342L109.856 57.0376L109.126 57.4056L109.091 57.7386L108.291 58.3695L107.392 58.6382L105.99 57.7386L105.623 57.8379L104.029 60.5893L101.751 61.3429L101.722 61.9446L103.182 62.5755L103.322 63.5101L101.086 66.2498L100.654 67.3305L101.121 69.8191L100.117 70.7187L99.5853 70.6544L98.4176 71.554L97.6527 74.7552L97.9154 76.2916L99.8188 76.8933L100.578 77.676L101.822 81.0992L102.353 83.5001L102.219 85.4337H101.022L100.753 85.7667L100.42 87.3206L99.5211 88.0216L99.8188 88.7868L99.3868 89.7565L99.3517 91.5265L98.4526 91.9939L93.513 92.7299L91.6797 92.6248L89.5135 91.9939L88.5092 92.5605L86.9503 92.4612L86.1154 92.9928L84.8133 92.2275L82.145 92.2918L80.6795 93.1972L79.0096 93.425L77.6434 94.1611L77.3106 94.6635L77.3748 95.9662L76.5749 97.0644L73.6088 96.9008L72.9432 97.7654L70.5377 98.6358L69.3057 98.5657L67.4431 97.7303L66.5089 97.7654L64.2085 98.665L62.4744 98.2678L60.5709 98.9337L59.4382 98.0691L58.7376 98.0984L57.2721 99.0681L55.7014 98.3671L53.8039 99.1031L52.2683 97.8647L49.9678 97.0293L46.6981 96.562L45.9333 97.3331L45.5654 98.3028L44.8998 98.7351L44.1291 98.7701L43.4635 97.4324L41.7586 97.3331L40.7251 97.8997L40.7952 99.033L40.5616 99.2375H38.2612L36.6905 99.9677L35.0265 100.102L34.4543 100.604L33.8763 101.335L33.0413 103.706L30.8518 107.813L30.2738 107.912L29.8768 107.579L29.3746 105.278L28.9718 104.84L28.2711 104.775L27.804 103.473L25.4393 103.303L24.6686 102.97L24.1373 102.339L23.3374 98.6358L22.9345 98.2327L21.9361 98.3028L20.4706 99.1674H19.7699L17.5979 100.803L16.7688 101.995L13.5634 102.369L13.0963 102.772L12.2263 102.538L11.2746 101.516L10.2937 99.4653L10.5973 98.5365L11.9636 97.263L12.5649 95.9954L11.403 92.9227L10.6965 92.543L6.32334 93.5477L4.25644 93.0453L3.78934 93.5769L2.42308 93.2089L1.38962 90.773L1.31955 89.9084L2.35885 88.1384L2.4114 86.6721L2.04939 85.9244L0 84.6276L0.566357 83.8448L0.788231 82.1566L2.36469 79.3818L2.85514 79.0547L6.17154 78.7276L6.87802 78.2953L7.85893 76.3909L10.1944 76.7122L10.4688 77.641L11.1228 78.1317L12.0978 78.564L14.0597 78.8385L15.4142 79.9776L17.2651 79.7089L18.8416 79.9251L20.9085 81.5549L23.1389 81.6133L24.0672 82.5947L26.1867 81.6133L27.1676 81.5023L29.071 81.6659L30.3205 82.3727L32.1714 81.8294L32.7144 81.3972L34.7229 80.9065L36.0833 79.2708L37.4963 79.1073L37.9342 78.564L41.0871 77.53L42.5001 76.607L42.6636 75.4621L43.2066 75.0824L42.8271 73.6103L41.525 72.033L40.655 71.4372L41.2506 70.7829L40.655 70.2922L40.4916 69.749L39.5632 69.3693L39.0786 69.5328L38.4246 70.3506H37.6598L36.7373 69.1531L35.5929 66.2674L34.0748 65.286L31.786 64.8537L31.7335 64.0884L32.656 61.7518L32.6034 61.0449L31.8444 59.9526L32.3349 58.3228L32.113 57.7211L31.57 57.3414L29.7775 56.7455L31.5174 55.2208V54.4614L31.243 53.6962L30.5891 53.1003L28.0901 52.119L27.7106 51.6808L29.287 50.5417V50.1036L28.4171 49.0171L29.0126 46.5694L28.7966 45.9151L28.2536 45.4829H27.4362L23.6819 46.5168L21.6909 47.469L19.6823 46.2248L19.3145 45.8217L19.4138 45.5588L21.0953 43.5785L21.8485 43.4208L22.9812 41.9195L22.7477 41.1192L23.7811 39.9859L23.9855 38.6131L25.8831 38.6832L25.9531 38.1458L27.4595 37.2111L27.7339 36.7672L27.5238 36.2473L28.1251 36.0779L28.9251 36.5802H30.5599L30.6942 38.1458L31.8269 39.2499L32.4633 39.5478L32.8603 39.2148L33.6311 39.2499L34.9331 40.2488L35.5286 41.1192L36.095 41.2827L36.2994 41.7501L37.5313 41.4171L37.2336 39.9859L37.3678 39.3141L38.3663 38.14L38.4013 35.9143L38.1853 35.26L36.9299 35.0439L37.0993 34.1443L37.5313 33.712L36.5329 31.4747L35.1958 30.7094L35.4995 30.1369L36.6964 30.172L36.965 29.2373L37.5664 29.4359L39.0494 31.3052L39.3822 32.643L40.2814 33.4082L40.8477 33.2096L40.912 32.2399L41.4491 32.0063L42.0505 33.1103L44.9815 34.1793L46.2194 35.1432L47.2178 35.2776L48.3213 34.9095L48.7534 33.4082L48.7884 30.908L49.3547 30.873L49.7868 31.4396L51.3866 31.4805L52.0873 30.908L52.023 30.1369L52.858 27.403L51.953 26.4684L52.023 26.0361L52.6244 25.6681L53.255 26.4041L53.8214 26.334L55.8241 25.5688L56.5889 23.7988L59.3857 23.0627L59.6951 22.5311L60.8629 21.8301L62.632 21.2285L65.9367 20.7611L66.9702 20.4282L67.7059 19.7622L68.6401 17.9922L68.1846 16.672L69.7319 15.0305L71.5127 14.7267L72.2718 13.4065L72.3827 12.4193L71.8163 11.3211L71.7404 9.24145L72.2309 7.42471L72.7972 6.74124L75.5998 6.1746L77.2639 6.43747L78.0988 5.60212V5.11142L79.2724 4.62072L79.5702 4.24102L79.646 3.06685L80.5919 2.31329L82.0691 2.80398L84.0777 2.76309L87.5167 3.25963L87.8962 2.87992V2.23734L87.1021 1.21506L87.2189 0.794461L89.6361 0L90.7747 1.40199L90.9265 2.54111L90.4711 3.25963L87.8962 4.77261L86.3839 6.62441V7.38382L87.7852 8.44699L88.7662 9.69126L90.8856 10.6785H91.452L91.7205 10.3397L91.9833 7.68758L92.7014 6.36154L95.5391 3.78538L95.6909 2.68715L96.409 2.04457L96.4499 0.946349L97.8103 1.02228L98.2307 1.36695L98.2657 2.80398L99.1591 3.25963L99.3868 3.78538L99.6145 7.15599L101.389 7.57658L102.563 8.17827L104.151 8.21917L105.214 9.76719L106.989 10.6376L107.672 12.7231L108.81 12.8749L109.978 14.236L111.041 14.6157L112.25 16.0528L112.477 17.8695L113.312 18.4771H114.182L114.445 18.7399L115.163 20.7845L115.618 21.0532L116.564 20.8604L118.269 24.2719L119.595 24.7217L120.5 25.82L121.714 25.8609L122.999 27.4089L124.131 27.222L127.465 28.4312L128.411 29.6462L127.617 31.5389L127.88 32.7481L128.183 32.9L128.674 32.6371L129.357 33.3557L130.075 33.1687L130.531 33.5076L131.663 33.5835L132.306 34.4889L135.826 34.7927L136.62 34.2261H137.263L138.664 34.8219Z"/>
</mask>
<path d="M138.664 34.8219L138.641 35.149L138.337 35.1607V37.3338L137.268 38.397L137.339 38.8001L139.983 41.1659L140.836 42.6322L142.167 43.5551L142.056 44.3554L141.49 44.408L140.421 45.109L139.674 45.0039L138.407 43.8589L137.957 43.7713L133.841 43.8589L133.479 44.0867L133.602 45.6523L132.066 47.9071L131.401 48.1174L130.963 47.5683L129.83 47.4106L128.732 47.6443L126.461 51.1785L124.458 52.3293L123.127 54.2687L120.622 56.1672L119.811 57.1486L118.561 57.6685H117.966L116.798 56.8039L115.992 57.1778L114.859 55.8342L109.856 57.0376L109.126 57.4056L109.091 57.7386L108.291 58.3695L107.392 58.6382L105.99 57.7386L105.623 57.8379L104.029 60.5893L101.751 61.3429L101.722 61.9446L103.182 62.5755L103.322 63.5101L101.086 66.2498L100.654 67.3305L101.121 69.8191L100.117 70.7187L99.5853 70.6544L98.4176 71.554L97.6527 74.7552L97.9154 76.2916L99.8188 76.8933L100.578 77.676L101.822 81.0992L102.353 83.5001L102.219 85.4337H101.022L100.753 85.7667L100.42 87.3206L99.5211 88.0216L99.8188 88.7868L99.3868 89.7565L99.3517 91.5265L98.4526 91.9939L93.513 92.7299L91.6797 92.6248L89.5135 91.9939L88.5092 92.5605L86.9503 92.4612L86.1154 92.9928L84.8133 92.2275L82.145 92.2918L80.6795 93.1972L79.0096 93.425L77.6434 94.1611L77.3106 94.6635L77.3748 95.9662L76.5749 97.0644L73.6088 96.9008L72.9432 97.7654L70.5377 98.6358L69.3057 98.5657L67.4431 97.7303L66.5089 97.7654L64.2085 98.665L62.4744 98.2678L60.5709 98.9337L59.4382 98.0691L58.7376 98.0984L57.2721 99.0681L55.7014 98.3671L53.8039 99.1031L52.2683 97.8647L49.9678 97.0293L46.6981 96.562L45.9333 97.3331L45.5654 98.3028L44.8998 98.7351L44.1291 98.7701L43.4635 97.4324L41.7586 97.3331L40.7251 97.8997L40.7952 99.033L40.5616 99.2375H38.2612L36.6905 99.9677L35.0265 100.102L34.4543 100.604L33.8763 101.335L33.0413 103.706L30.8518 107.813L30.2738 107.912L29.8768 107.579L29.3746 105.278L28.9718 104.84L28.2711 104.775L27.804 103.473L25.4393 103.303L24.6686 102.97L24.1373 102.339L23.3374 98.6358L22.9345 98.2327L21.9361 98.3028L20.4706 99.1674H19.7699L17.5979 100.803L16.7688 101.995L13.5634 102.369L13.0963 102.772L12.2263 102.538L11.2746 101.516L10.2937 99.4653L10.5973 98.5365L11.9636 97.263L12.5649 95.9954L11.403 92.9227L10.6965 92.543L6.32334 93.5477L4.25644 93.0453L3.78934 93.5769L2.42308 93.2089L1.38962 90.773L1.31955 89.9084L2.35885 88.1384L2.4114 86.6721L2.04939 85.9244L0 84.6276L0.566357 83.8448L0.788231 82.1566L2.36469 79.3818L2.85514 79.0547L6.17154 78.7276L6.87802 78.2953L7.85893 76.3909L10.1944 76.7122L10.4688 77.641L11.1228 78.1317L12.0978 78.564L14.0597 78.8385L15.4142 79.9776L17.2651 79.7089L18.8416 79.9251L20.9085 81.5549L23.1389 81.6133L24.0672 82.5947L26.1867 81.6133L27.1676 81.5023L29.071 81.6659L30.3205 82.3727L32.1714 81.8294L32.7144 81.3972L34.7229 80.9065L36.0833 79.2708L37.4963 79.1073L37.9342 78.564L41.0871 77.53L42.5001 76.607L42.6636 75.4621L43.2066 75.0824L42.8271 73.6103L41.525 72.033L40.655 71.4372L41.2506 70.7829L40.655 70.2922L40.4916 69.749L39.5632 69.3693L39.0786 69.5328L38.4246 70.3506H37.6598L36.7373 69.1531L35.5929 66.2674L34.0748 65.286L31.786 64.8537L31.7335 64.0884L32.656 61.7518L32.6034 61.0449L31.8444 59.9526L32.3349 58.3228L32.113 57.7211L31.57 57.3414L29.7775 56.7455L31.5174 55.2208V54.4614L31.243 53.6962L30.5891 53.1003L28.0901 52.119L27.7106 51.6808L29.287 50.5417V50.1036L28.4171 49.0171L29.0126 46.5694L28.7966 45.9151L28.2536 45.4829H27.4362L23.6819 46.5168L21.6909 47.469L19.6823 46.2248L19.3145 45.8217L19.4138 45.5588L21.0953 43.5785L21.8485 43.4208L22.9812 41.9195L22.7477 41.1192L23.7811 39.9859L23.9855 38.6131L25.8831 38.6832L25.9531 38.1458L27.4595 37.2111L27.7339 36.7672L27.5238 36.2473L28.1251 36.0779L28.9251 36.5802H30.5599L30.6942 38.1458L31.8269 39.2499L32.4633 39.5478L32.8603 39.2148L33.6311 39.2499L34.9331 40.2488L35.5286 41.1192L36.095 41.2827L36.2994 41.7501L37.5313 41.4171L37.2336 39.9859L37.3678 39.3141L38.3663 38.14L38.4013 35.9143L38.1853 35.26L36.9299 35.0439L37.0993 34.1443L37.5313 33.712L36.5329 31.4747L35.1958 30.7094L35.4995 30.1369L36.6964 30.172L36.965 29.2373L37.5664 29.4359L39.0494 31.3052L39.3822 32.643L40.2814 33.4082L40.8477 33.2096L40.912 32.2399L41.4491 32.0063L42.0505 33.1103L44.9815 34.1793L46.2194 35.1432L47.2178 35.2776L48.3213 34.9095L48.7534 33.4082L48.7884 30.908L49.3547 30.873L49.7868 31.4396L51.3866 31.4805L52.0873 30.908L52.023 30.1369L52.858 27.403L51.953 26.4684L52.023 26.0361L52.6244 25.6681L53.255 26.4041L53.8214 26.334L55.8241 25.5688L56.5889 23.7988L59.3857 23.0627L59.6951 22.5311L60.8629 21.8301L62.632 21.2285L65.9367 20.7611L66.9702 20.4282L67.7059 19.7622L68.6401 17.9922L68.1846 16.672L69.7319 15.0305L71.5127 14.7267L72.2718 13.4065L72.3827 12.4193L71.8163 11.3211L71.7404 9.24145L72.2309 7.42471L72.7972 6.74124L75.5998 6.1746L77.2639 6.43747L78.0988 5.60212V5.11142L79.2724 4.62072L79.5702 4.24102L79.646 3.06685L80.5919 2.31329L82.0691 2.80398L84.0777 2.76309L87.5167 3.25963L87.8962 2.87992V2.23734L87.1021 1.21506L87.2189 0.794461L89.6361 0L90.7747 1.40199L90.9265 2.54111L90.4711 3.25963L87.8962 4.77261L86.3839 6.62441V7.38382L87.7852 8.44699L88.7662 9.69126L90.8856 10.6785H91.452L91.7205 10.3397L91.9833 7.68758L92.7014 6.36154L95.5391 3.78538L95.6909 2.68715L96.409 2.04457L96.4499 0.946349L97.8103 1.02228L98.2307 1.36695L98.2657 2.80398L99.1591 3.25963L99.3868 3.78538L99.6145 7.15599L101.389 7.57658L102.563 8.17827L104.151 8.21917L105.214 9.76719L106.989 10.6376L107.672 12.7231L108.81 12.8749L109.978 14.236L111.041 14.6157L112.25 16.0528L112.477 17.8695L113.312 18.4771H114.182L114.445 18.7399L115.163 20.7845L115.618 21.0532L116.564 20.8604L118.269 24.2719L119.595 24.7217L120.5 25.82L121.714 25.8609L122.999 27.4089L124.131 27.222L127.465 28.4312L128.411 29.6462L127.617 31.5389L127.88 32.7481L128.183 32.9L128.674 32.6371L129.357 33.3557L130.075 33.1687L130.531 33.5076L131.663 33.5835L132.306 34.4889L135.826 34.7927L136.62 34.2261H137.263L138.664 34.8219Z" fill="#3C5F63" fill-opacity="0.7" stroke="#E5E4E9" stroke-width="0.771084" mask="url(#path-1-inside-1_249_3701)"/>
</svg>
