<svg width="44" height="38" viewBox="0 0 44 38" fill="none" xmlns="http://www.w3.org/2000/svg">
<path d="M39.5989 11.551C39.2878 11.4286 38.9564 11.3663 38.6221 11.3672H38.5871C36.8216 11.3935 34.8416 13.0469 33.8026 15.5477C32.5571 18.5395 33.1304 21.6004 35.0928 22.3873C35.4036 22.5097 35.7348 22.5721 36.0688 22.5712C37.8431 22.5712 39.8502 20.9081 40.8979 18.3907C42.1347 15.3989 41.5526 12.3379 39.5989 11.551V11.551Z" stroke="#242424" stroke-width="2.98772" stroke-miterlimit="10"/>
<path d="M28.2062 23.2283C25.7729 19.1905 24.7225 17.6719 21.939 17.6719C19.1555 17.6719 18.0964 19.2002 15.663 23.2283C13.5798 26.6736 9.36956 26.9607 8.31918 29.8868C8.10609 30.4228 7.99908 30.995 8.00407 31.5718C8.00407 33.9518 9.82472 35.8783 12.0655 35.8783C14.849 35.8783 18.6391 33.6559 21.9478 33.6559C25.2564 33.6559 29.029 35.8783 31.8125 35.8783C34.0533 35.8783 35.8652 33.9526 35.8652 31.5718C35.8672 30.9945 35.7572 30.4222 35.5413 29.8868C34.4909 26.9502 30.2895 26.6736 28.2062 23.2283Z" stroke="#242424" stroke-width="2.98772" stroke-miterlimit="10"/>
<path d="M16.3814 13.8197C16.4986 13.8198 16.6157 13.811 16.7315 13.7934C18.7631 13.4985 20.0315 10.6835 19.571 7.50435C19.1378 4.50729 17.3189 2.26563 15.4168 2.26563C15.2996 2.26553 15.1826 2.27431 15.0667 2.29189C13.0351 2.58686 11.7668 5.40186 12.2272 8.58098C12.6605 11.5693 14.4794 13.8197 16.3814 13.8197Z" stroke="#242424" stroke-width="2.98772" stroke-miterlimit="10"/>
<path d="M31.6465 8.58098C32.107 5.40186 30.8386 2.58686 28.807 2.29189C28.6912 2.27431 28.5741 2.26553 28.4569 2.26563C26.5549 2.26563 24.7395 4.50729 24.3053 7.50435C23.8449 10.6835 25.1132 13.4985 27.1448 13.7934C27.2607 13.811 27.3777 13.8198 27.4949 13.8197C29.397 13.8197 31.2159 11.5693 31.6465 8.58098V8.58098Z" stroke="#242424" stroke-width="2.98772" stroke-miterlimit="10"/>
<path d="M8.78903 22.3873C10.7488 21.5996 11.3213 18.536 10.0775 15.5477C9.03061 13.0303 7.02528 11.3672 5.25365 11.3672C4.91964 11.3663 4.58848 11.4287 4.27768 11.551C2.31787 12.3388 1.74541 15.4024 2.98923 18.3907C4.0361 20.9081 6.04143 22.5712 7.81306 22.5712C8.14707 22.5721 8.47823 22.5097 8.78903 22.3873V22.3873Z" stroke="#242424" stroke-width="2.98772" stroke-miterlimit="10"/>
</svg>
