<svg width="68" height="68" viewBox="0 0 68 68" fill="none" xmlns="http://www.w3.org/2000/svg">
<path d="M28.2625 25.4314C32.1351 21.5587 32.1351 15.2798 28.2625 11.4071C24.3898 7.53443 18.1109 7.53443 14.2382 11.4071C10.3655 15.2798 10.3655 21.5587 14.2382 25.4314L21.2503 32.4434L28.2625 25.4314ZM21.2503 40.4575L10.2312 29.4384C4.14558 23.3527 4.14558 13.4859 10.2312 7.40018C16.3169 1.31452 26.1837 1.31452 32.2694 7.40018C38.3552 13.4859 38.3552 23.3527 32.2694 29.4384L21.2503 40.4575ZM21.2503 22.6693C18.9031 22.6693 17.0003 20.7665 17.0003 18.4193C17.0003 16.0721 18.9031 14.1693 21.2503 14.1693C23.5975 14.1693 25.5003 16.0721 25.5003 18.4193C25.5003 20.7665 23.5975 22.6693 21.2503 22.6693ZM46.7503 57.9434L53.7625 50.9315C57.6351 47.0586 57.6351 40.7799 53.7625 36.9071C49.8897 33.0345 43.611 33.0345 39.7381 36.9071C35.8655 40.7799 35.8655 47.0586 39.7381 50.9315L46.7503 57.9434ZM57.7694 54.9384L46.7503 65.9575L35.7312 54.9384C29.6455 48.8527 29.6455 38.9859 35.7312 32.9002C41.8169 26.8145 51.6837 26.8145 57.7694 32.9002C63.8551 38.9859 63.8551 48.8527 57.7694 54.9384ZM46.7503 48.1693C44.4032 48.1693 42.5003 46.2664 42.5003 43.9193C42.5003 41.5721 44.4032 39.6693 46.7503 39.6693C49.0975 39.6693 51.0003 41.5721 51.0003 43.9193C51.0003 46.2664 49.0975 48.1693 46.7503 48.1693Z" fill="#3C5F63"/>
</svg>
