<svg width="70" height="70" viewBox="0 0 70 70" fill="none" xmlns="http://www.w3.org/2000/svg">
<path d="M49.584 58.3333H20.4173V61.25C20.4173 62.8609 19.1115 64.1667 17.5007 64.1667H11.6673C10.0565 64.1667 8.75065 62.8609 8.75065 61.25V35H5.83398V23.3333H8.75065V14.5833C8.75065 11.3617 11.3623 8.75 14.584 8.75H55.4173C58.6391 8.75 61.2506 11.3617 61.2506 14.5833V23.3333H64.1673V35H61.2506V61.25C61.2506 62.8609 59.9449 64.1667 58.334 64.1667H52.5006C50.8898 64.1667 49.584 62.8609 49.584 61.25V58.3333ZM14.584 14.5833V32.0833H55.4173V14.5833H14.584ZM55.4173 37.9167H14.584V52.5H55.4173V37.9167ZM21.8757 49.5833C19.4594 49.5833 17.5007 47.6245 17.5007 45.2083C17.5007 42.7922 19.4594 40.8333 21.8757 40.8333C24.2919 40.8333 26.2507 42.7922 26.2507 45.2083C26.2507 47.6245 24.2919 49.5833 21.8757 49.5833ZM48.1256 49.5833C45.7095 49.5833 43.7506 47.6245 43.7506 45.2083C43.7506 42.7922 45.7095 40.8333 48.1256 40.8333C50.5418 40.8333 52.5006 42.7922 52.5006 45.2083C52.5006 47.6245 50.5418 49.5833 48.1256 49.5833Z" fill="#3C5F63"/>
</svg>
