<svg width="69" height="70" viewBox="0 0 69 70" fill="none" xmlns="http://www.w3.org/2000/svg">
<path d="M21.8991 25.411L31.1137 18.6192C32.1251 17.8714 33.3749 17.4575 34.6868 17.5023C37.882 17.582 40.688 19.707 41.6641 22.8094C42.1997 24.5126 42.6882 25.6619 43.1298 26.2573C45.7526 29.7952 49.9257 32.0833 54.6255 32.0833V37.9167C48.3732 37.9167 42.7871 35.0242 39.0959 30.4867L37.0903 42.0248L43.0159 47.0692L49.4076 64.8842L44.0043 66.8792L38.1396 50.533L28.3927 42.2357C26.8185 40.9447 25.9651 38.8477 26.3415 36.682L27.8038 28.2692L25.8578 29.7036L19.7427 38.2422L15.0908 34.8136L21.8503 25.375L21.8991 25.411ZM38.813 16.0417C35.6372 16.0417 33.063 13.43 33.063 10.2083C33.063 6.98667 35.6372 4.375 38.813 4.375C41.9884 4.375 44.563 6.98667 44.563 10.2083C44.563 13.43 41.9884 16.0417 38.813 16.0417ZM30.2696 54.4871L21.0295 65.6588L16.6248 61.9092L25.1784 51.5675L27.3246 45.2083L32.4742 49.5833L30.2696 54.4871Z" fill="#3C5F63"/>
</svg>
