<svg width="70" height="70" viewBox="0 0 70 70" fill="none" xmlns="http://www.w3.org/2000/svg">
<path d="M50.1667 58.3333L55.4167 62.7083V64.1667H14.5833V62.7083L19.8333 58.3333H14.5833C11.3617 58.3333 8.75 55.7217 8.75 52.5V20.4167C8.75 13.9733 13.9733 8.75 20.4167 8.75H49.5833C56.0265 8.75 61.25 13.9733 61.25 20.4167V52.5C61.25 55.7217 58.6384 58.3333 55.4167 58.3333H50.1667ZM20.4167 14.5833C17.195 14.5833 14.5833 17.195 14.5833 20.4167V52.5H55.4167V20.4167C55.4167 17.195 52.8051 14.5833 49.5833 14.5833H20.4167ZM35 49.5833C31.7783 49.5833 29.1667 46.9717 29.1667 43.75C29.1667 40.5282 31.7783 37.9167 35 37.9167C38.2218 37.9167 40.8333 40.5282 40.8333 43.75C40.8333 46.9717 38.2218 49.5833 35 49.5833ZM17.5 20.4167H52.5V32.0833H17.5V20.4167Z" fill="#3C5F63"/>
</svg>
