<svg width="16" height="16" viewBox="0 0 16 16" fill="none" xmlns="http://www.w3.org/2000/svg">
<g clip-path="url(#clip0_249_5063)">
<path d="M7.32885 3.49792V2.7372C7.32885 2.34162 7.00934 2.02212 6.61377 2.02212C6.21819 2.02212 5.89869 2.34162 5.89869 2.7372V3.49792C2.61236 3.87828 0.132402 6.64732 0.117188 9.94886V10.6639H13.1103V9.94886C13.0951 6.64732 10.6152 3.87828 7.32885 3.49792ZM1.62342 9.23378C1.98857 6.72339 4.14902 4.92808 6.61377 4.92808C6.8572 4.92808 7.11584 4.9433 7.35928 4.97373C9.56537 5.30844 11.2846 7.02768 11.6193 9.23378H1.62342ZM0.117188 13.5547H13.1103V12.1245H0.117188V13.5547Z" fill="#242424"/>
</g>
<defs>
<clipPath id="clip0_249_5063">
<rect width="15.5796" height="15.5796" fill="white" transform="matrix(1 0 0 -1 0.117188 15.5781)"/>
</clipPath>
</defs>
</svg>
