<svg width="16" height="16" viewBox="0 0 16 16" fill="none" xmlns="http://www.w3.org/2000/svg">
<g clip-path="url(#clip0_249_5079)">
<path d="M12.8517 4.79391H11.4824L10.8282 2.45088C10.7673 2.2531 10.6456 2.19224 10.4478 2.19224L0.451906 4.79391C0.314976 4.85477 0.19326 4.91563 0.117188 5.11342V13.5574C0.117188 13.74 0.254118 13.877 0.451906 13.877H12.7756C12.9734 13.877 13.1103 13.74 13.1103 13.5574V5.11342C13.1103 4.97649 12.9734 4.85477 12.8517 4.79391ZM9.79359 3.68326L10.1131 4.79391H5.32054L9.79359 3.68326ZM9.85445 10.0429C9.33716 10.0429 8.88072 9.58647 8.88072 9.06918C8.88072 8.55189 9.33716 8.09545 9.85445 8.09545C10.3717 8.09545 10.8282 8.55189 10.8282 9.06918C10.8282 9.58647 10.4478 10.0429 9.85445 10.0429Z" fill="#242424"/>
</g>
<defs>
<clipPath id="clip0_249_5079">
<rect width="15.5796" height="15.5796" fill="white" transform="matrix(1 0 0 -1 0.117188 15.8242)"/>
</clipPath>
</defs>
</svg>
