<svg width="16" height="17" viewBox="0 0 16 17" fill="none" xmlns="http://www.w3.org/2000/svg">
<g clip-path="url(#clip0_249_5095)">
<path d="M12.8061 12.8514H8.57643V7.00902H4.68153V12.8514H0.46712C0.254118 12.8514 0.117188 13.0035 0.117188 13.1709C0.117188 13.2622 0.147616 13.3535 0.208474 13.4295L1.63863 14.738C1.69949 14.7988 1.76035 14.7988 1.89728 14.7988H11.3759C11.4368 14.7988 11.5737 14.738 11.6345 14.738L13.0647 13.4295C13.1103 13.3535 13.1408 13.2774 13.1408 13.2013C13.1408 13.0187 12.9886 12.8514 12.8061 12.8514ZM6.62898 5.63972C7.34406 5.63972 7.93743 5.06157 7.93743 4.34649C7.93743 4.20956 7.93743 4.08784 7.86135 3.95091L6.9637 1.9426C6.88763 1.80567 6.78113 1.74481 6.65941 1.74481C6.55291 1.74481 6.44641 1.80567 6.37034 1.9426L5.47268 3.95091C5.33575 4.08784 5.33575 4.20956 5.33575 4.34649C5.33575 5.06157 5.9139 5.63972 6.62898 5.63972Z" fill="#242424"/>
</g>
<defs>
<clipPath id="clip0_249_5095">
<rect width="15.5796" height="15.5796" fill="white" transform="matrix(1 0 0 -1 0.117188 16.0615)"/>
</clipPath>
</defs>
</svg>
