<svg width="118" height="44" viewBox="0 0 118 44" fill="none" xmlns="http://www.w3.org/2000/svg">
<path d="M45.4136 1.46625L46.2602 1.83427L47.2295 2.80398L50.1955 3.46992L51.229 4.73756L52.2624 5.17568L54.4344 5.33924L55.8649 4.36953L58.6675 4.20597L63.2743 5.59043L67.1103 7.65837L68.3073 8.76243L69.3349 9.22976L69.837 8.82669L73.4395 8.62808L77.1413 10.4623L78.2389 10.5617L79.541 11.2626L82.2443 15.1356L84.4455 15.5037L85.1461 15.7665L85.4439 16.2339L86.4774 16.5376L88.7136 16.8005L90.2258 16.3565L91.3819 16.7012L95.0545 16.2689L98.0556 17.4372L102.026 17.8695L102.522 18.7691L102.808 21.6724L104.414 22.4435L109.266 23.2789L109.803 23.2438L110.918 22.5195L111.549 22.8407L112.01 22.6655L112.355 21.6899L112.699 19.4468L113.505 19.2715L114.135 19.9082L114.538 21.0006L115.169 21.1116L115.916 20.4807L116.547 20.7085L117.236 21.4037V22.4961L116.839 23.6995L115.227 25.6564L115.11 27.4965L114.422 28.3027L110.113 29.7981L107.526 28.9336L105.109 29.1088L103.561 30.4874L101.144 29.8565L99.0773 30.6043L98.2132 30.2538L97.5826 30.3706L94.9961 32.6138L92.4679 31.8076L92.0066 32.2107L91.8373 35.2016L92.6372 36.294L94.5348 36.9833L94.2487 38.5956L94.5348 39.5711L93.0985 40.202L92.1818 39.8574L91.3761 40.0326L90.9148 39.1681L89.7646 39.9158L88.8479 38.9987L88.445 39.1097L87.178 40.8388L85.5724 41.5865L85.0527 43.3098L82.9274 43.6544H82.1217L78.4667 40.8388L75.5356 39.4017L72.7739 39.6296L70.3041 38.3094L69.2707 38.4203L67.5482 37.1001L65.5339 37.6726L64.7281 37.4448L63.6363 35.7741L61.7971 34.9154L60.1914 34.9738L57.7742 34.5123L57.1436 35.0322L57.202 35.9493L55.935 37.9647L55.7073 39.0571L55.935 41.125L55.7073 42.1006L55.0183 43.1345L53.1207 43.8297L52.6011 43.193L50.4174 43.1345L48.3505 41.5865L46.7974 41.125L42.8329 39.0571L36.4512 37.62L34.7871 35.9493L32.0838 34.857L31.2255 34.7985L29.4389 35.6047L27.2552 35.6631L25.8772 36.5802H24.5577L23.4658 36.4108L21.796 35.3769L20.9318 35.2016L18.1176 35.0322L16.8331 35.6573L15.7762 34.2728L14.7428 34.1034L13.575 33.3381L12.5416 32.1698L10.5389 30.9664L7.67209 30.6685L7.0707 30.8671L5.96718 32.3042L4.93373 32.7715L4.13382 32.6371L3.06533 31.9361L1.99685 32.4677L1.36626 32.4385L1.03346 31.1709L0.297776 30.6335L0 29.5352L1.09768 26.6962L2.23039 26.4625L2.27126 25.9018L3.03614 25.5629L3.91778 24.6166L3.70175 24.0266L2.86682 23.5301L2.84346 22.9225L4.4024 21.8944L5.00379 19.4234L5.93799 19.289L8.13919 20.5216L9.07338 20.4223L9.17264 19.3241L8.90406 18.8217L7.70129 17.0867L6.20073 15.6497L5.93799 15.0188L6.17153 14.1484L6.83715 13.3481L7.63706 13.1495L10.7725 13.7161L13.1079 13.0502L13.1722 8.82669L14.7078 8.47619L15.9105 7.40718L16.8739 5.74231L17.0432 4.03656L17.7439 3.83795L19.443 4.27022L20.6808 4.03656L22.4149 2.33665L24.1139 2.3016L24.7504 2.63457L25.7838 2.66962L28.2828 1.83427L29.7717 2.97923L31.354 3.50497L31.9729 2.60536L33.2399 2.06793L33.6719 1.30268L36.0425 1.53634L40.2463 0L43.6153 0.566636L45.4136 1.46625Z" fill="#3C5F63" fill-opacity="0.7"/>
</svg>
