<svg width="31" height="23" viewBox="0 0 31 23" fill="none" xmlns="http://www.w3.org/2000/svg">
<path d="M5.22691 21.2688C5.22691 21.0336 5.32528 20.8081 5.50037 20.6418C5.67547 20.4755 5.91295 20.3821 6.16057 20.3821H24.8338C25.0815 20.3821 25.3189 20.4755 25.494 20.6418C25.6691 20.8081 25.7675 21.0336 25.7675 21.2688C25.7675 21.504 25.6691 21.7295 25.494 21.8958C25.3189 22.0621 25.0815 22.1555 24.8338 22.1555H6.16057C5.91295 22.1555 5.67547 22.0621 5.50037 21.8958C5.32528 21.7295 5.22691 21.504 5.22691 21.2688ZM26.6844 2.64837L26.7292 2.65015C27.0781 2.6727 27.4192 2.7588 27.7338 2.90374C27.9604 3.0039 28.155 3.15932 28.2977 3.35418C28.4228 3.53151 28.5685 3.8454 28.5685 4.42175V15.046L28.5666 15.0886C28.5427 15.4199 28.452 15.7438 28.2996 16.0427C28.1941 16.2578 28.0304 16.4426 27.8253 16.5782C27.6386 16.697 27.308 16.8354 26.7012 16.8354H4.31005L4.26524 16.8336C3.91637 16.8108 3.57533 16.7248 3.26062 16.58C3.03406 16.4798 2.83949 16.3243 2.69668 16.1296C2.57157 15.9522 2.42592 15.6383 2.42592 15.062V4.43771L2.42779 4.39514C2.45154 4.0638 2.5422 3.73989 2.69482 3.44107C2.80035 3.22591 2.964 3.04113 3.16912 2.90551C3.35585 2.7867 3.68637 2.64837 4.29325 2.64837H26.6844ZM26.7012 0.875H4.29325C0.558594 0.875 0.558594 4.42175 0.558594 4.42175V15.062C0.558594 18.6087 4.29325 18.6087 4.29325 18.6087H26.7012C30.4358 18.6087 30.4358 15.062 30.4358 15.062V4.42175C30.4358 0.875 26.7012 0.875 26.7012 0.875Z" fill="#242424"/>
</svg>
