<svg width="19" height="18" viewBox="0 0 19 18" fill="none" xmlns="http://www.w3.org/2000/svg">
<path d="M17.2586 6.83437H5.14905V4.1029C5.14905 3.09863 5.92493 2.28192 6.87898 2.28192C7.83304 2.28192 8.60892 3.09863 8.60892 4.1029H10.3388C10.3388 2.09436 8.7871 0.460938 6.87898 0.460938C4.97087 0.460938 3.41912 2.09436 3.41912 4.1029V6.83437H1.68919C1.45978 6.83437 1.23977 6.9303 1.07756 7.10105C0.915349 7.2718 0.824219 7.50339 0.824219 7.74487V9.56585C0.824219 11.9386 2.27217 13.9571 4.28408 14.7101V17.7603H6.01402V15.0288H12.9337V17.7603H14.6637V14.7101C16.6756 13.9571 18.1235 11.9386 18.1235 9.56585V7.74487C18.1235 7.50339 18.0324 7.2718 17.8702 7.10105C17.708 6.9303 17.488 6.83437 17.2586 6.83437ZM16.3936 9.56585C16.3936 11.5744 14.8419 13.2078 12.9337 13.2078H6.01402C4.1059 13.2078 2.55415 11.5744 2.55415 9.56585V8.65536H16.3936V9.56585Z" fill="#242424"/>
</svg>
