<svg width="24" height="24" viewBox="0 0 24 24" fill="none" xmlns="http://www.w3.org/2000/svg">
<path d="M15.68 0C22.4 0 24 1.6 24 8.32V15.68C24 22.4 22.4 24 15.68 24H8.32C1.6 24 0 22.4 0 15.68V8.32C0 1.6 1.6 0 8.32 0H15.68Z" fill="#2787F5"/>
<path d="M6.2504 7.5H4.5004C4.0004 7.5 3.90039 7.73538 3.90039 7.99493C3.90039 8.45844 4.49368 10.7574 6.66284 13.798C8.10894 15.8744 10.1464 17 12.0004 17C13.1128 17 13.2504 16.75 13.2504 16.3194V14.75C13.2504 14.25 13.3558 14.1502 13.708 14.1502C13.9676 14.1502 14.4126 14.28 15.4508 15.2812C16.6374 16.4677 16.833 17 17.5004 17H19.2504C19.7504 17 20.0004 16.75 19.8562 16.2566C19.6984 15.7649 19.1318 15.0515 18.3801 14.2058C17.9722 13.7238 17.3604 13.2047 17.175 12.9451C16.9155 12.6114 16.9896 12.4631 17.175 12.1664L17.2062 12.1223C17.4699 11.7475 19.323 9.09012 19.5296 8.14328C19.6408 7.77247 19.5296 7.5 19.0004 7.5H17.2504C16.8054 7.5 16.6003 7.73538 16.489 7.99493C16.489 7.99493 15.5991 10.1641 14.3384 11.5732C13.9305 11.981 13.7451 12.1108 13.5226 12.1108C13.4114 12.1108 13.2504 11.981 13.2504 11.6102V8.14328C13.2504 7.69831 13.1212 7.5 12.7504 7.5H10.0004C9.72233 7.5 9.5551 7.70652 9.5551 7.90225C9.5551 8.32407 10.1854 8.42134 10.2504 9.60792V12.185C10.2504 12.75 10.1484 12.8524 9.92588 12.8524C9.33262 12.8524 7.88951 10.6736 7.03362 8.18034C6.86588 7.69575 6.69765 7.5 6.2504 7.5Z" fill="white"/>
</svg>
