<svg width="29" height="19" viewBox="0 0 29 19" fill="none" xmlns="http://www.w3.org/2000/svg">
<path d="M28.4071 5.74283C28.501 5.65623 28.574 5.55133 28.6211 5.43535C28.6682 5.31937 28.6883 5.19508 28.68 5.07102C28.6716 4.94697 28.6351 4.82611 28.5728 4.71676C28.5106 4.60742 28.4241 4.51219 28.3194 4.43763C24.3383 1.68881 19.5409 0.211539 14.6188 0.218776C9.50043 0.218776 4.76489 1.78289 0.918196 4.43763C0.813336 4.51205 0.72671 4.60718 0.664287 4.71645C0.601864 4.82573 0.565127 4.94656 0.556607 5.07061C0.548088 5.19467 0.567989 5.31901 0.614938 5.43505C0.661888 5.5511 0.73477 5.65611 0.828564 5.74283C0.99176 5.89549 1.2067 5.98818 1.43513 6.00442C1.66355 6.02066 1.89063 5.95938 2.07594 5.8315C5.72683 3.32925 10.1164 1.9856 14.6188 1.99215C19.3002 1.99215 23.6324 3.41439 27.1597 5.82973C27.5425 6.09219 28.0747 6.06027 28.4071 5.74283Z" fill="#242424"/>
<path d="M24.3839 9.56642C24.4801 9.47825 24.5544 9.37084 24.6015 9.25198C24.6485 9.13312 24.6671 9.0058 24.6558 8.87928C24.6445 8.75275 24.6037 8.6302 24.5363 8.52053C24.469 8.41086 24.3767 8.31682 24.2663 8.24525C21.395 6.47399 18.0435 5.53377 14.6197 5.53908C11.0624 5.53908 7.74789 6.53217 4.97304 8.24525C4.86203 8.3164 4.76922 8.41027 4.70143 8.51996C4.63364 8.62965 4.5926 8.75237 4.58131 8.8791C4.57003 9.00583 4.58879 9.13336 4.63622 9.2523C4.68365 9.37124 4.75855 9.47858 4.8554 9.56642C5.0145 9.71389 5.22166 9.80562 5.44289 9.82657C5.66411 9.84751 5.88627 9.79643 6.0729 9.68169C8.62371 8.13009 11.5905 7.30768 14.6197 7.31246C17.6482 7.30802 20.6143 8.13041 23.1645 9.68169C23.5492 9.91577 24.0609 9.87321 24.3839 9.56642ZM20.3075 13.4377C20.7295 13.0369 20.653 12.3648 20.1208 12.1077C18.4169 11.2842 16.5315 10.8563 14.6197 10.8592C12.6403 10.8592 10.7692 11.3096 9.11851 12.1077C8.58632 12.3648 8.50976 13.0369 8.93177 13.4377L8.95978 13.4643C9.25856 13.748 9.71979 13.8012 10.1007 13.6239C11.5072 12.9692 13.0533 12.6301 14.6197 12.6326C16.2405 12.6326 17.7754 12.989 19.1386 13.6257C19.5177 13.803 19.9789 13.7498 20.2777 13.4643L20.3075 13.4377ZM16.599 16.9596C16.965 16.612 16.9688 16.0375 16.5243 15.7892C15.9482 15.4635 15.2901 15.292 14.6197 15.2926C13.9492 15.292 13.2911 15.4635 12.715 15.7892C12.2706 16.0375 12.2743 16.612 12.6403 16.9596L13.9586 18.2116C14.1337 18.3778 14.3711 18.4712 14.6187 18.4712C14.8663 18.4712 15.1037 18.3778 15.2788 18.2116L16.599 16.9578V16.9596Z" fill="#242424"/>
</svg>
