<svg width="51" height="10" viewBox="0 0 51 10" fill="none" xmlns="http://www.w3.org/2000/svg">
<ellipse cx="4.55325" cy="5.00067" rx="4.22122" ry="4.48504" fill="#3C5F63"/>
<ellipse cx="15.106" cy="5.00067" rx="4.22122" ry="4.48504" fill="#3C5F63"/>
<ellipse cx="25.6597" cy="5.00067" rx="4.22122" ry="4.48504" fill="#3C5F63"/>
<ellipse cx="36.2124" cy="5.00067" rx="4.22122" ry="4.48504" fill="#3C5F63"/>
<circle cx="46.7652" cy="5.26418" r="4.22122" fill="#3C5F63"/>
<mask id="path-6-inside-1_249_3032" fill="white">
<path d="M46.7651 9.4854C47.3195 9.4854 47.8684 9.37621 48.3805 9.16408C48.8926 8.95194 49.358 8.64101 49.75 8.24903C50.1419 7.85706 50.4529 7.39171 50.665 6.87957C50.8771 6.36743 50.9863 5.81852 50.9863 5.26418C50.9863 4.70985 50.8771 4.16094 50.665 3.64879C50.4529 3.13665 50.1419 2.67131 49.75 2.27933C49.358 1.88736 48.8926 1.57642 48.3805 1.36429C47.8684 1.15215 47.3194 1.04297 46.7651 1.04297L46.7651 5.26418V9.4854Z"/>
</mask>
<path d="M46.7651 9.4854C47.3195 9.4854 47.8684 9.37621 48.3805 9.16408C48.8926 8.95194 49.358 8.64101 49.75 8.24903C50.1419 7.85706 50.4529 7.39171 50.665 6.87957C50.8771 6.36743 50.9863 5.81852 50.9863 5.26418C50.9863 4.70985 50.8771 4.16094 50.665 3.64879C50.4529 3.13665 50.1419 2.67131 49.75 2.27933C49.358 1.88736 48.8926 1.57642 48.3805 1.36429C47.8684 1.15215 47.3194 1.04297 46.7651 1.04297L46.7651 5.26418V9.4854Z" fill="#E5E4E9" stroke="#3C5F63" stroke-width="1.0553" mask="url(#path-6-inside-1_249_3032)"/>
</svg>
