<svg width="20" height="20" viewBox="0 0 20 20" fill="none" xmlns="http://www.w3.org/2000/svg">
<path d="M8.33203 9.16797V6.66797L12.4987 10.0013L8.33203 13.3346V10.8346H0.832031V9.16797H8.33203ZM2.04686 12.5013H3.81663C4.80561 14.9445 7.20088 16.668 9.9987 16.668C13.6806 16.668 16.6654 13.6832 16.6654 10.0013C16.6654 6.3194 13.6806 3.33464 9.9987 3.33464C7.20088 3.33464 4.80561 5.05811 3.81663 7.5013H2.04686C3.10876 4.12038 6.26733 1.66797 9.9987 1.66797C14.601 1.66797 18.332 5.39893 18.332 10.0013C18.332 14.6036 14.601 18.3346 9.9987 18.3346C6.26733 18.3346 3.10876 15.8822 2.04686 12.5013Z" fill="#FFFCFC"/>
</svg>
