<svg width="18" height="18" viewBox="0 0 18 18" fill="none" xmlns="http://www.w3.org/2000/svg">
<path d="M5.06999 11.6067C4.93814 11.6068 4.80966 11.565 4.70312 11.4873L0.935305 8.75016C0.868905 8.7019 0.812661 8.64103 0.769785 8.57103C0.726908 8.50103 0.698238 8.42328 0.685412 8.3422C0.672586 8.26112 0.675855 8.17831 0.695032 8.0985C0.714209 8.01869 0.748919 7.94343 0.79718 7.87703C0.845441 7.81063 0.906307 7.75439 0.976304 7.71151C1.0463 7.66863 1.12406 7.63996 1.20514 7.62714C1.28621 7.61431 1.36902 7.61758 1.44884 7.63676C1.52865 7.65594 1.60391 7.69065 1.6703 7.73891L5.43812 10.4761C5.54495 10.5537 5.62444 10.6632 5.66521 10.7888C5.70598 10.9144 5.70591 11.0497 5.66503 11.1752C5.62415 11.3008 5.54455 11.4102 5.43765 11.4877C5.33075 11.5652 5.20204 11.6069 5.06999 11.6067ZM6.57093 6.98828H1.91405C1.74829 6.98828 1.58932 6.92243 1.47211 6.80522C1.3549 6.68801 1.28905 6.52904 1.28905 6.36328C1.28905 6.19752 1.3549 6.03855 1.47211 5.92134C1.58932 5.80413 1.74829 5.73828 1.91405 5.73828H6.57093C6.73669 5.73828 6.89566 5.80413 7.01287 5.92134C7.13008 6.03855 7.19593 6.19752 7.19593 6.36328C7.19593 6.52904 7.13008 6.68801 7.01287 6.80522C6.89566 6.92243 6.73669 6.98828 6.57093 6.98828Z" fill="white"/>
<path d="M1.30296 8.87058C1.17546 8.87058 1.04703 8.83183 0.935775 8.75121C0.349525 8.32496 0.118275 7.59652 0.3464 6.89496C0.574525 6.19277 1.19015 5.73933 1.91484 5.73933C2.0806 5.73933 2.23957 5.80518 2.35678 5.92239C2.47399 6.0396 2.53984 6.19857 2.53984 6.36433C2.53984 6.53009 2.47399 6.68906 2.35678 6.80627C2.23957 6.92348 2.0806 6.98933 1.91484 6.98933C1.65078 6.98933 1.55765 7.21308 1.53546 7.28152C1.51328 7.34996 1.45734 7.58464 1.6714 7.73996C1.77825 7.81759 1.85776 7.92708 1.89852 8.05271C1.93927 8.17834 1.93919 8.31365 1.89827 8.43923C1.85734 8.56481 1.77769 8.67419 1.67074 8.75169C1.56379 8.82918 1.43504 8.8708 1.30296 8.87058ZM6.57171 6.98964C6.47307 6.98957 6.37584 6.96617 6.28797 6.92135C6.20009 6.87654 6.12406 6.81158 6.06607 6.73178C6.00809 6.65197 5.9698 6.55959 5.95432 6.46217C5.93884 6.36475 5.94662 6.26505 5.97702 6.17121L7.41609 1.74214C7.4676 1.58464 7.57943 1.45397 7.7271 1.37876C7.87476 1.30355 8.04622 1.28993 8.2039 1.34089C8.36151 1.39226 8.49228 1.50408 8.56751 1.65179C8.64275 1.7995 8.65628 1.97102 8.60515 2.12871L7.16609 6.55777C7.12518 6.68322 7.04567 6.79252 6.93893 6.87009C6.83218 6.94765 6.70366 6.98949 6.57171 6.98964ZM11.4277 6.98964C11.2957 6.98959 11.1671 6.94778 11.0603 6.87021C10.9536 6.79263 10.8741 6.68327 10.8333 6.55777L9.39421 2.12871C9.35017 1.97307 9.36812 1.80642 9.44429 1.66373C9.52047 1.52104 9.64895 1.41339 9.80278 1.36339C9.9566 1.31338 10.1238 1.32489 10.2693 1.39551C10.4149 1.46613 10.5274 1.59036 10.5833 1.74214L12.0223 6.17121C12.0527 6.26505 12.0605 6.36475 12.045 6.46217C12.0296 6.55959 11.9913 6.65197 11.9333 6.73178C11.8753 6.81158 11.7993 6.87654 11.7114 6.92135C11.6235 6.96617 11.5263 6.98957 11.4277 6.98964Z" fill="white"/>
<path d="M9.98764 2.55992C9.85571 2.55985 9.72719 2.51803 9.62048 2.44045C9.51377 2.36287 9.43434 2.25352 9.39358 2.12805C9.3117 1.8768 9.07014 1.85742 8.99826 1.85742C8.9267 1.85742 8.68608 1.87711 8.6042 2.12836C8.5529 2.286 8.44108 2.4168 8.29333 2.49199C8.14559 2.56718 7.97403 2.5806 7.81639 2.5293C7.65875 2.47799 7.52795 2.36617 7.45276 2.21843C7.37757 2.07068 7.36415 1.89912 7.41545 1.74148C7.63951 1.05242 8.26108 0.607422 8.99795 0.607422C9.73608 0.607422 10.358 1.05273 10.582 1.7418C10.6126 1.8356 10.6205 1.9353 10.6051 2.03274C10.5897 2.13018 10.5514 2.22259 10.4934 2.30241C10.4354 2.38222 10.3594 2.44716 10.2715 2.49192C10.1836 2.53668 10.0863 2.55998 9.98764 2.55992ZM16.0839 6.98867H11.427C11.2613 6.98867 11.1023 6.92282 10.9851 6.80561C10.8679 6.6884 10.802 6.52943 10.802 6.36367C10.802 6.19791 10.8679 6.03894 10.9851 5.92173C11.1023 5.80452 11.2613 5.73867 11.427 5.73867H16.0839C16.2496 5.73867 16.4086 5.80452 16.5258 5.92173C16.643 6.03894 16.7089 6.19791 16.7089 6.36367C16.7089 6.52943 16.643 6.6884 16.5258 6.80561C16.4086 6.92282 16.2496 6.98867 16.0839 6.98867ZM12.928 11.6071C12.7958 11.6075 12.6669 11.5659 12.5599 11.4884C12.4529 11.4109 12.3732 11.3015 12.3322 11.1758C12.2913 11.0502 12.2913 10.9148 12.3322 10.7891C12.3731 10.6635 12.4528 10.554 12.5598 10.4765L16.3276 7.7393C16.462 7.64727 16.6269 7.61126 16.7874 7.63894C16.9478 7.66662 17.0912 7.7558 17.1869 7.88751C17.2826 8.01922 17.3232 8.18309 17.3 8.34426C17.2768 8.50542 17.1916 8.65118 17.0626 8.75055L13.2948 11.4877C13.1883 11.5654 13.0598 11.6072 12.928 11.6071Z" fill="white"/>
<path d="M16.6966 8.86922C16.5646 8.86942 16.4359 8.82778 16.329 8.75028C16.2221 8.67278 16.1425 8.56339 16.1016 8.43783C16.0608 8.31228 16.0608 8.177 16.1016 8.05143C16.1424 7.92586 16.2219 7.81645 16.3288 7.73891C16.5426 7.58359 16.4863 7.34766 16.4641 7.27891C16.4419 7.21078 16.3491 6.98828 16.0851 6.98828C15.9193 6.98828 15.7603 6.92243 15.6431 6.80522C15.5259 6.68801 15.4601 6.52904 15.4601 6.36328C15.4601 6.19752 15.5259 6.03855 15.6431 5.92134C15.7603 5.80413 15.9193 5.73828 16.0851 5.73828C16.8094 5.73828 17.4251 6.19141 17.6529 6.89266C17.881 7.59516 17.6498 8.32422 17.0638 8.75016C16.9571 8.82763 16.8285 8.86931 16.6966 8.86922ZM14.3676 16.0358C14.2356 16.0357 14.1071 15.9939 14.0004 15.9163C13.8937 15.8387 13.8143 15.7294 13.7735 15.6039L12.3341 11.1745C12.285 11.0175 12.2998 10.8473 12.3753 10.7011C12.4508 10.5549 12.5809 10.4443 12.7375 10.3935C12.894 10.3426 13.0643 10.3555 13.2113 10.4295C13.3584 10.5034 13.4703 10.6323 13.5229 10.7883L14.9619 15.2173C14.9926 15.3112 15.0005 15.4109 14.9851 15.5084C14.9698 15.6059 14.9315 15.6983 14.8735 15.7782C14.8155 15.858 14.7394 15.923 14.6515 15.9678C14.5636 16.0126 14.4663 16.0359 14.3676 16.0358ZM12.7669 17.1983C12.6351 17.1984 12.5066 17.1566 12.4001 17.0789L8.63257 14.3414C8.56617 14.2931 8.50993 14.2323 8.46705 14.1623C8.42417 14.0923 8.3955 14.0145 8.38268 13.9335C8.36985 13.8524 8.37312 13.7696 8.3923 13.6898C8.41147 13.6099 8.44618 13.5347 8.49445 13.4683C8.54271 13.4019 8.60357 13.3456 8.67357 13.3028C8.74357 13.2599 8.82132 13.2312 8.9024 13.2184C8.98348 13.2056 9.06629 13.2088 9.1461 13.228C9.22592 13.2472 9.30117 13.2819 9.36757 13.3302L13.1351 16.0677C13.2419 16.1453 13.3214 16.2547 13.3622 16.3803C13.4029 16.5059 13.4029 16.6412 13.362 16.7668C13.3211 16.8923 13.2415 17.0017 13.1346 17.0792C13.0277 17.1568 12.899 17.1984 12.7669 17.1983Z" fill="white"/>
<path d="M13.3581 17.3949C13.013 17.3942 12.6771 17.2837 12.399 17.0793C12.3309 17.0318 12.2729 16.9712 12.2285 16.901C12.1841 16.8308 12.1541 16.7524 12.1403 16.6705C12.1265 16.5886 12.1292 16.5047 12.1482 16.4238C12.1671 16.343 12.2021 16.2667 12.2509 16.1995C12.2997 16.1322 12.3614 16.0754 12.4325 16.0323C12.5035 15.9892 12.5824 15.9607 12.6646 15.9485C12.7468 15.9363 12.8305 15.9406 12.911 15.9611C12.9915 15.9816 13.0671 16.018 13.1334 16.0681C13.3475 16.2234 13.555 16.0971 13.6134 16.0546C13.6875 16.0006 13.8515 15.849 13.7722 15.6043C13.721 15.4466 13.7345 15.2751 13.8099 15.1274C13.8852 14.9797 14.0161 14.868 14.1737 14.8168C14.3314 14.7656 14.503 14.7792 14.6507 14.8545C14.7983 14.9298 14.9101 15.0607 14.9612 15.2184C15.185 15.9078 14.9444 16.6331 14.3484 17.0662C14.0614 17.2778 13.7147 17.393 13.3581 17.3949ZM5.23186 17.1987C5.09981 17.1989 4.9711 17.1572 4.8642 17.0797C4.7573 17.0021 4.6777 16.8928 4.63682 16.7672C4.59594 16.6416 4.59588 16.5064 4.63664 16.3808C4.67741 16.2552 4.75691 16.1457 4.86373 16.0681L8.63124 13.3306C8.76556 13.2385 8.93049 13.2025 9.09095 13.2302C9.25141 13.2579 9.39475 13.3471 9.49048 13.4788C9.58621 13.6105 9.62679 13.7744 9.60359 13.9355C9.58039 14.0967 9.49523 14.2425 9.36623 14.3418L5.59874 17.0793C5.49219 17.157 5.36371 17.1988 5.23186 17.1987ZM3.63123 16.0362C3.53254 16.0363 3.43524 16.0129 3.3473 15.9682C3.25935 15.9234 3.18325 15.8584 3.12524 15.7786C3.06723 15.6987 3.02895 15.6063 3.01353 15.5088C2.99812 15.4114 3.006 15.3116 3.03655 15.2178L4.47561 10.7887C4.52817 10.6327 4.64012 10.5038 4.78717 10.4299C4.93422 10.3559 5.10449 10.343 5.26102 10.3939C5.41755 10.4447 5.5477 10.5553 5.62322 10.7015C5.69873 10.8478 5.71352 11.0179 5.66436 11.175L4.2253 15.604C4.18463 15.7296 4.10524 15.839 3.99851 15.9167C3.89179 15.9943 3.76321 16.0362 3.63123 16.0362Z" fill="white"/>
<path d="M4.63972 17.3958C4.28428 17.3939 3.93866 17.279 3.65285 17.0677C3.05504 16.6333 2.81347 15.9074 3.03754 15.2183C3.09214 15.0649 3.2044 14.9389 3.35045 14.867C3.4965 14.7951 3.66483 14.783 3.81966 14.8333C3.9745 14.8835 4.10364 14.9922 4.17962 15.1362C4.25561 15.2801 4.27246 15.448 4.2266 15.6042C4.14472 15.8558 4.32941 16.0142 4.38785 16.0564C4.46222 16.1102 4.6566 16.2195 4.86535 16.0683C4.93175 16.0201 5.00699 15.9854 5.08679 15.9663C5.16659 15.9471 5.24938 15.9439 5.33043 15.9567C5.41147 15.9696 5.4892 15.9983 5.55916 16.0412C5.62911 16.0841 5.68994 16.1403 5.73816 16.2067C5.78638 16.2731 5.82105 16.3484 5.84019 16.4282C5.85933 16.508 5.86256 16.5908 5.84971 16.6718C5.83685 16.7529 5.80816 16.8306 5.76527 16.9005C5.72237 16.9705 5.66612 17.0313 5.59972 17.0795C5.32138 17.2841 4.98517 17.3949 4.63972 17.3958Z" fill="white"/>
</svg>
